<svg width="97" height="36" viewBox="0 0 97 36" fill="none" xmlns="http://www.w3.org/2000/svg">
<path d="M13.8604 4.36537L15.3046 8.90041L17.1625 5.99016L16.6314 0L13.8604 4.36537Z" fill="white"/>
<path d="M19.2626 5.99016L21.1205 8.90041L22.5535 4.39672L19.7937 0L19.2626 5.99016Z" fill="white"/>
<path d="M29.9422 4.15697L24.8623 5.3041L22.6448 9.52193L26.0363 8.76394L29.9422 4.15697Z" fill="white"/>
<path d="M26.7556 13.5904L30.9876 11.4105L32.1764 6.36824L27.5215 10.2338L26.7556 13.5904Z" fill="white"/>
<path d="M13.8511 31.6346L16.6221 36L17.1532 30.0098L15.2972 27.0996L13.8511 31.6346Z" fill="white"/>
<path d="M19.2552 30.0098L19.7844 36L22.5461 31.6033L21.1112 27.0996L19.2552 30.0098Z" fill="white"/>
<path d="M22.6579 26.4578L24.8773 30.6738L29.9552 31.8227L26.0512 27.2158L22.6579 26.4578Z" fill="white"/>
<path d="M26.7705 22.3875L27.5364 25.7441L32.1914 29.6096L31.0025 24.5674L26.7705 22.3875Z" fill="white"/>
<path d="M27.3985 15.1193L30.3372 16.9561L36.3897 16.4324L31.9789 13.6881L27.3985 15.1193Z" fill="white"/>
<path d="M27.3985 20.8734L31.9472 22.2934L36.3897 19.5602L30.3372 19.0365L27.3985 20.8734Z" fill="white"/>
<path d="M13.7468 9.53115L11.5274 5.31332L6.44945 4.16619L10.3534 8.77316L13.7468 9.53115Z" fill="white"/>
<path d="M9.63411 13.5996L8.86823 10.243L4.21329 6.37746L5.40405 11.4197L9.63411 13.5996Z" fill="white"/>
<path d="M6.47368 31.832L11.5535 30.6848L13.771 26.467L10.3795 27.225L6.47368 31.832Z" fill="white"/>
<path d="M9.6602 22.3967L5.42827 24.5766L4.23938 29.6189L8.89432 25.7533L9.6602 22.3967Z" fill="white"/>
<path d="M8.99308 15.1285L4.41082 13.6973L0 16.4416L6.05253 16.9654L8.99308 15.1285Z" fill="white"/>
<path d="M8.99308 20.8826L6.05253 19.0457L0 19.5695L4.4425 22.3027L8.99308 20.8826Z" fill="white"/>
<path d="M42.8392 13.4484C42.8392 9.50717 46.1208 6.34242 50.1067 6.34242C54.0927 6.34242 57.3742 9.50717 57.3742 13.4484C57.3068 15.3102 56.5121 17.0735 55.1574 18.3671C53.8028 19.6606 51.9938 20.3835 50.1114 20.3835C48.2289 20.3835 46.42 19.6606 45.0653 18.3671C43.7106 17.0735 42.9159 15.3102 42.8485 13.4484H42.8392ZM54.8045 13.4484C54.8045 10.6322 52.7547 8.57951 50.103 8.57951C47.4513 8.57951 45.3996 10.634 45.3996 13.4484C45.3996 16.2627 47.4494 18.3338 50.103 18.3338C52.7565 18.3338 54.8045 16.2812 54.8045 13.4484Z" fill="white"/>
<path d="M58.9041 13.4484C58.9041 9.50717 62.1167 6.34242 66.4847 6.34242C68.6444 6.34242 70.2116 6.95656 71.2552 7.60205V10.2357C69.8818 9.2748 68.3761 8.57582 66.4847 8.57582C63.423 8.57582 61.4645 10.6285 61.4645 13.4447C61.4645 16.2609 63.4398 18.3301 66.4176 18.3301C67.3777 18.3421 68.326 18.1204 69.1793 17.6846V15.2502H66.3356V13.1662H71.5533V18.9959C70.0397 20.0181 68.2482 20.5615 66.4157 20.5543C62.1167 20.5543 58.9041 17.4062 58.9041 13.4484Z" fill="white"/>
<path d="M73.0366 14.9219V6.62275H75.4964V14.9219C75.4964 17.135 76.7021 18.3172 78.5264 18.3172C80.3507 18.3172 81.6384 17.1756 81.6384 14.9219V6.62275H84.0479V14.9367C84.0479 18.4648 81.6552 20.5525 78.4929 20.5525C75.3306 20.5525 73.0366 18.4998 73.0366 14.9219Z" fill="white"/>
<path d="M85.6113 20.2721L92.6925 8.85984H86.1815V6.62459H96.8033L89.7221 18.0369H96.6449V20.2721H85.6113Z" fill="white"/>
<path d="M43.8585 29.4049H42.9081V24.0418H46.622V24.8699H43.8585V26.2605H46.5643V27.0885H43.8585V29.4049Z" fill="white"/>
<path d="M51.9925 28.717C51.4552 29.2214 50.7429 29.5025 50.0024 29.5025C49.2618 29.5025 48.5495 29.2214 48.0122 28.717C47.5104 28.1733 47.2322 27.4635 47.2322 26.7271C47.2322 25.9906 47.5104 25.2808 48.0122 24.7371C48.5499 24.2336 49.2621 23.953 50.0024 23.953C50.7426 23.953 51.4548 24.2336 51.9925 24.7371C52.4943 25.2808 52.7725 25.9906 52.7725 26.7271C52.7725 27.4635 52.4943 28.1733 51.9925 28.717ZM50.0024 28.6654C50.2476 28.6747 50.4919 28.6298 50.7175 28.5342C50.9431 28.4385 51.1444 28.2943 51.3068 28.1121C51.6271 27.7187 51.8018 27.2286 51.8018 26.7234C51.8018 26.2181 51.6271 25.728 51.3068 25.3346C51.1381 25.1606 50.9356 25.0221 50.7114 24.9275C50.4872 24.8329 50.246 24.7841 50.0024 24.7841C49.7587 24.7841 49.5175 24.8329 49.2933 24.9275C49.0691 25.0221 48.8666 25.1606 48.6979 25.3346C48.3794 25.7299 48.2059 26.2205 48.2059 26.7261C48.2059 27.2317 48.3794 27.7223 48.6979 28.1176C48.8612 28.2983 49.0628 28.4411 49.2883 28.5358C49.5138 28.6305 49.7576 28.6747 50.0024 28.6654Z" fill="white"/>
<path d="M57.6295 29.4049H56.5319L55.33 27.4021H54.3871V29.4049H53.4367V24.0418H55.8182C56.0528 24.0314 56.2871 24.0673 56.5076 24.1474C56.728 24.2275 56.9301 24.3502 57.1021 24.5084C57.2642 24.6659 57.3913 24.8553 57.475 25.0643C57.5588 25.2732 57.5974 25.4973 57.5885 25.7219C57.6124 26.096 57.4938 26.4654 57.2562 26.7573C57.0185 27.0492 56.679 27.2423 56.3046 27.2988L57.6295 29.4049ZM55.6878 26.574C55.9314 26.5835 56.1694 26.5003 56.353 26.3416C56.4357 26.2605 56.5014 26.164 56.5462 26.0576C56.591 25.9513 56.6141 25.8372 56.6141 25.7219C56.6141 25.6067 56.591 25.4926 56.5462 25.3862C56.5014 25.2799 56.4357 25.1834 56.353 25.1023C56.1694 24.9435 55.9314 24.8604 55.6878 24.8699H54.3834V26.574H55.6878Z" fill="white"/>
<path d="M60.6334 29.5027C59.8644 29.5027 59.2805 29.3041 58.8818 28.907C58.6774 28.691 58.5193 28.4364 58.4168 28.1585C58.3143 27.8806 58.2697 27.585 58.2854 27.2896V24.0418H59.2433V27.2582C59.2227 27.6352 59.3533 28.005 59.6066 28.2873C59.8915 28.5305 60.2553 28.6644 60.6315 28.6644C61.0078 28.6644 61.3716 28.5305 61.6565 28.2873C61.9051 28.0027 62.0326 27.6339 62.0124 27.2582V24.0418H62.9721V27.2822C62.9721 27.9682 62.7727 28.5098 62.3739 28.907C61.9751 29.3041 61.395 29.5027 60.6334 29.5027Z" fill="white"/>
<path d="M69.2519 29.4049H68.3016V25.425L66.6431 29.4049H66.2369L64.5802 25.425V29.4049H63.628V24.0418H64.966L66.4362 27.5717L67.9158 24.0418H69.2519V29.4049Z" fill="white"/>
<path d="M73.2043 29.5654H72.6192V23.8814H73.2043V29.5654Z" fill="white"/>
<path d="M80.1588 29.4049H76.4468V24.0418H80.1588V24.8699H77.3971V26.2605H80.1029V27.0885H77.3971V28.5768H80.1588V29.4049Z" fill="white"/>
<path d="M86.1498 29.4049H85.0131L83.4925 27.3061L81.9738 29.4049H80.8352L82.8683 26.6551L80.9582 24.0418H82.0949L83.4925 26.0115L84.8827 24.0418H86.0231L84.1205 26.6477L86.1498 29.4049Z" fill="white"/>
<path d="M87.7096 29.4049H86.7685V24.0418H89.15C89.3878 24.0294 89.6255 24.0657 89.8484 24.1486C90.0713 24.2314 90.2744 24.3589 90.4451 24.5232C90.7518 24.8486 90.9223 25.277 90.9223 25.7219C90.9223 26.1669 90.7518 26.5953 90.4451 26.9207C90.2751 27.0861 90.0722 27.2147 89.8492 27.2982C89.6262 27.3817 89.3881 27.4184 89.15 27.4057H87.7189L87.7096 29.4049ZM89.014 26.574C89.2581 26.5834 89.4967 26.5003 89.6811 26.3416C89.8468 26.1771 89.9398 25.9542 89.9398 25.7219C89.9398 25.4896 89.8468 25.2668 89.6811 25.1023C89.4967 24.9436 89.2581 24.8605 89.014 24.8699H87.7096V26.574H89.014Z" fill="white"/>
<path d="M96.22 28.717C95.6824 29.2215 94.9697 29.5027 94.2289 29.5027C93.488 29.5027 92.7754 29.2215 92.2378 28.717C91.736 28.1733 91.4578 27.4635 91.4578 26.7271C91.4578 25.9906 91.736 25.2808 92.2378 24.7371C92.776 24.2339 93.4884 23.9535 94.2289 23.9535C94.9693 23.9535 95.6817 24.2339 96.22 24.7371C96.7218 25.2808 97 25.9906 97 26.7271C97 27.4635 96.7218 28.1733 96.22 28.717ZM94.2224 28.6654C94.4676 28.6744 94.7118 28.6295 94.9374 28.5338C95.163 28.4381 95.3643 28.2941 95.5268 28.1121C95.8471 27.7187 96.0218 27.2286 96.0218 26.7234C96.0218 26.2181 95.8471 25.728 95.5268 25.3346C95.3581 25.1606 95.1556 25.0221 94.9314 24.9275C94.7072 24.8329 94.4661 24.7841 94.2224 24.7841C93.9787 24.7841 93.7375 24.8329 93.5133 24.9275C93.2892 25.0221 93.0866 25.1606 92.9179 25.3346C92.5994 25.7299 92.4259 26.2205 92.4259 26.7261C92.4259 27.2317 92.5994 27.7223 92.9179 28.1176C93.0811 28.2985 93.2826 28.4414 93.5081 28.5361C93.7337 28.6308 93.9776 28.675 94.2224 28.6654Z" fill="white"/>
</svg>
