<svg width="198" height="48" viewBox="0 0 198 48" fill="none" xmlns="http://www.w3.org/2000/svg">
<path fill-rule="evenodd" clip-rule="evenodd" d="M20.6298 43.9703C20.6298 45.0045 21.4833 45.8485 22.5369 45.8485H23.3693C24.2123 45.8485 24.9323 45.5545 25.1816 44.8039H34.0535C34.3028 45.5545 35.0228 45.8485 35.8658 45.8485H36.6982C37.7483 45.8485 38.6018 45.0045 38.6018 43.9703V43.4895C39.7433 42.9015 40.8672 42.1578 41.8049 41.4245C41.9454 42.31 42.1245 43.1886 42.3353 44.0602L42.4231 44.42C38.5105 46.8067 34.064 48 29.6175 48C24.5775 48 19.541 46.4677 15.2772 43.403L16.1201 40.2934C17.1843 41.3346 18.8842 42.5936 20.6298 43.4895V43.9703ZM9.46096 10.5049L11.8809 11.5391L11.2662 12.1375L11.2381 12.1721C10.8342 12.6148 10.346 13.023 9.92809 13.4623C9.77706 13.6179 9.61199 13.7424 9.46096 13.905L8.59696 14.7594C8.53725 14.7455 8.47754 14.7352 8.41432 14.7213C8.02798 14.6314 7.63461 14.5518 7.24476 14.4723C7.84535 13.0956 8.58642 11.7674 9.46096 10.5049ZM20.9248 22.4694H23.0813C22.695 22.8706 22.4526 23.4068 22.4316 23.9983C22.4316 24.0259 22.4316 24.0536 22.4316 24.0813V25.5271H18.6805C18.7894 28.3185 19.1898 31.0027 19.8571 33.4551L21.7607 33.5C21.838 33.5104 21.9153 33.5173 21.9925 33.5173H22.4245V35.316C21.0196 35.9628 20.6263 36.5924 20.6263 38.0935V41.971C19.6991 40.795 18.9404 39.5255 18.1818 38.0624L17.2686 36.0424L17.3845 35.61C17.5777 34.8975 17.251 34.0984 16.6891 33.6003C16.1974 31.6391 15.6389 27.4365 15.5722 25.5306H13.5105C13.2436 24.8699 12.5903 24.3995 11.8247 24.3995H5.24982C5.24631 24.2681 5.24631 24.1332 5.24631 24.0017C5.24631 22.1685 5.46055 20.3352 5.88202 18.5435L6.80222 19.1246C6.8268 19.173 6.84788 19.218 6.87246 19.263C6.94973 19.4048 7.01998 19.55 7.09724 19.6919C7.24827 19.972 7.39578 20.2557 7.54681 20.5359C7.81725 21.0374 8.13686 21.5735 8.3792 22.0889L8.43188 22.2619C8.42486 22.3345 8.42135 22.4037 8.41432 22.4729H8.4951L8.88847 23.7907L10.3776 22.4729H15.5757C15.6319 20.9336 15.7689 19.4255 15.9867 17.9589L16.1623 18.4778C16.1974 18.585 16.2325 18.6957 16.2711 18.8029C16.3098 18.9067 16.3414 19.0139 16.38 19.1177C16.4116 19.2076 16.4432 19.2975 16.4748 19.3875L16.4784 19.3944L17.525 22.4936C17.5601 22.6043 17.5952 22.7115 17.6339 22.8188C17.6655 22.9052 17.7006 22.9952 17.7287 23.0816L18.2591 24.8561L19.2284 23.9983L19.6569 23.6212L20.5455 22.8326L20.5596 22.8188C20.6087 22.7703 20.6544 22.7219 20.7 22.6735C20.7703 22.6147 20.837 22.5524 20.9073 22.4902L20.9248 22.4694ZM36.2135 3.54889C38.9565 4.27873 42.3247 6.72422 43.6488 8.27038C42.8586 8.95871 42.0227 9.58132 41.1516 10.1382C39.7994 7.50249 38.4718 5.49282 36.2135 3.54889ZM31.1664 13.4208V3.27909C34.6611 4.27181 37.088 8.27729 38.4051 11.6152C36.1432 12.6287 33.6987 13.2444 31.1664 13.4208ZM43.6559 22.4694C43.5364 19.1696 43.0342 15.9908 42.1878 13.106C43.4732 12.3416 44.6884 11.4526 45.8264 10.453C48.7591 13.8462 50.4976 18.0212 50.8208 22.4694H43.6559ZM13.795 5.74879C18.3433 1.91626 23.9804 0 29.6175 0C35.8517 0 42.0859 2.34517 46.8449 7.03206C51.6075 11.7224 53.9853 17.8621 53.9853 23.9983C53.7535 23.9706 53.5146 23.9533 53.2758 23.9533H47.1575C46.9152 23.9533 46.6764 23.9671 46.4446 23.9983C43.6629 24.3476 41.4958 26.6997 41.4958 29.5292C41.4958 30.8609 41.4677 32.1891 41.4467 33.5173C41.4361 34.005 41.4291 34.4893 41.4256 34.977C41.4186 35.4647 41.4186 35.9559 41.4221 36.4436L41.1516 37.8652C40.3579 39.4114 39.5747 40.7431 38.6053 41.971V38.0935C38.6053 36.6304 38.1909 35.9559 36.807 35.316V33.5173H37.239C37.3198 33.5173 37.3971 33.5104 37.4709 33.5L39.3745 33.4551C40.0418 31.0027 40.4457 28.3185 40.5511 25.5271H36.8035V24.0813C36.8035 24.0536 36.8035 24.0259 36.8 23.9983C36.7789 23.4068 36.5366 22.8706 36.1503 22.4694H40.5475C40.4387 19.678 40.0383 16.9939 39.371 14.5415C36.8 15.6483 34.0324 16.309 31.1664 16.4854V21.7292H28.0616V16.4854C25.6558 16.3367 23.3201 15.849 21.1075 15.0396L20.8967 12.812C20.8897 12.7532 20.8862 12.6944 20.8792 12.6321L20.7808 11.591L20.823 11.6117C23.0848 12.6252 25.5293 13.2374 28.0616 13.4173V3.27564C26.7762 3.63883 25.6347 4.41363 24.6443 5.40981C24.711 4.85984 24.5881 4.31332 24.1596 3.84636C23.8083 3.45896 23.3728 3.23067 22.8601 3.13036C22.5404 3.07155 22.2278 3.06464 21.9082 3.10269C21.2234 3.18224 20.5525 3.48317 20.0433 3.93975C19.6429 4.29948 19.2144 4.62463 18.814 4.9809C18.7156 5.06738 18.6032 5.14348 18.5014 5.23341C18.3995 5.32334 18.2977 5.41327 18.1923 5.50666C18.0975 5.58968 17.9921 5.66232 17.8938 5.74879L17.1913 6.35757C17.0579 6.33336 16.9244 6.30914 16.7909 6.28493C15.8216 6.10506 14.8522 5.94941 13.8864 5.76263H13.8793L13.795 5.74879Z" fill="#009FE3"/>
<path fill-rule="evenodd" clip-rule="evenodd" d="M4.21021 6.99402C4.27343 7.03552 4.36474 7.07011 4.43499 7.09778C4.51928 7.12891 4.58601 7.16351 4.67382 7.19809L6.28944 7.89335C6.33509 7.91064 6.35968 7.91756 6.40183 7.93486L7.67676 8.48483C8.02096 8.6474 8.36515 8.77884 8.71637 8.92758C8.76554 8.94833 8.79013 8.96562 8.84281 8.98637L13.4754 10.9684C14.062 11.2347 14.0093 11.1067 13.7213 11.3904C13.644 11.4665 13.5913 11.5287 13.4895 11.6186C13.342 11.7501 13.1944 11.9334 13.0434 12.0614L12.1302 12.9469C11.9933 13.106 11.0309 14.0157 10.7816 14.2751C10.6411 14.4239 10.4479 14.5657 10.3179 14.7179L8.97276 16.0461L8.55481 15.9562C8.41081 15.9216 8.28437 15.9008 8.13686 15.8663C7.29744 15.6691 6.44046 15.5238 5.60455 15.3163C5.46758 15.4373 5.36924 15.4996 5.22875 15.6241L4.48767 16.2779C4.58601 16.3782 5.15148 16.7102 5.28143 16.7898L7.68378 18.3117C7.72944 18.3636 7.86993 18.6438 7.91208 18.7268C7.98583 18.8652 8.05959 19.0105 8.13686 19.1557C8.2914 19.4394 8.43188 19.7126 8.58642 19.9997C8.65315 20.1242 9.45745 21.5977 9.48555 21.6981L9.9035 21.328C9.9597 21.2726 9.95618 21.2588 10.0264 21.1965C10.1177 21.1135 10.2161 21.0305 10.3109 20.9475L10.5814 20.6846C10.5357 20.5946 10.4338 19.6123 10.4057 19.4255L10.1599 17.5473C10.1494 17.4747 10.1529 17.3882 10.1213 17.3294L10.7921 16.7794C10.9045 16.6999 11.0134 16.5719 11.1293 16.4854C11.2381 16.4024 11.3435 16.3194 11.4629 16.2121C11.5823 16.1084 11.6701 16.053 11.7966 15.9389L12.1302 15.6656C12.3656 15.4581 12.5728 15.2817 12.8151 15.0811L13.6475 14.3927C13.7248 14.327 13.7459 14.3305 13.8196 14.2648C13.9285 14.1714 14.0374 14.0538 14.1568 13.9777C14.2727 13.9016 14.3851 13.7909 14.494 13.694C14.5677 13.6283 14.5888 13.6283 14.6555 13.5764L15.1648 13.1475C15.2245 13.0956 15.2807 13.0437 15.3404 12.9919C15.4177 12.9227 15.4458 12.9227 15.5125 12.8639C15.5406 12.9676 15.5827 13.061 15.6144 13.1717C15.6495 13.2789 15.6846 13.3723 15.7162 13.4796C15.9024 14.1022 16.1517 14.7075 16.3414 15.3301L17.2827 18.118C17.3213 18.2287 17.3494 18.3187 17.388 18.4259C17.4267 18.5366 17.4583 18.6369 17.4934 18.7337C17.532 18.8375 17.5671 18.9378 17.5988 19.0416L18.6419 22.1374C18.6805 22.248 18.7086 22.338 18.7472 22.4452C18.7859 22.5559 18.828 22.6631 18.8596 22.7669L18.8737 22.7565L19.7342 21.9955C19.7974 21.9333 19.8185 21.8952 19.8993 21.826C19.973 21.7638 20.0433 21.6981 20.117 21.6358C20.261 21.5113 20.3664 21.3902 20.5209 21.2519C20.4928 21.1377 20.4893 21.0132 20.4788 20.8956C20.3207 19.0796 20.1276 17.2706 19.966 15.4581L19.7272 12.9365C19.7201 12.8673 19.7166 12.8258 19.7131 12.7601L19.5234 10.7712C19.5129 10.6432 19.5024 10.5325 19.4918 10.4045C19.4813 10.3077 19.4497 9.74389 19.4111 9.66779C19.5445 9.55018 19.692 9.45334 19.8255 9.34957C19.8747 9.31152 19.9274 9.25963 19.973 9.21813C20.0819 9.12128 20.1451 9.09015 20.254 8.9933C20.3453 8.91374 20.4366 8.81689 20.535 8.75463C20.7317 8.62665 20.8967 8.40873 21.0969 8.28075C21.3147 8.13893 21.9785 7.51286 22.2279 7.29495C22.7617 6.82107 23.9594 5.38213 23.2921 4.65229C23.1024 4.44476 22.8917 4.34791 22.6458 4.29948C22.4421 4.26144 22.2559 4.26144 22.0593 4.28219C21.694 4.3237 21.2304 4.4828 20.8511 4.82524C20.4401 5.19535 20.0257 5.50666 19.6148 5.86985C19.4954 5.97362 19.4146 6.02205 19.3057 6.1189C19.2038 6.21229 19.0985 6.30222 18.9966 6.39215C18.8807 6.49592 18.807 6.53743 18.6875 6.6412L17.6128 7.57166C17.5074 7.66159 17.4091 7.60626 17.1668 7.55783C16.9736 7.51978 16.7769 7.48864 16.5837 7.45059C15.6144 7.27073 14.6345 7.11508 13.6651 6.92483L12.2075 6.6585C12.1513 6.64812 12.1197 6.64466 12.067 6.63428L11.0415 6.4475C10.9888 6.44058 10.9501 6.43021 10.901 6.42329L6.08221 5.55163C5.91714 5.5205 5.94875 5.48936 5.78368 5.6381C5.25685 6.09468 4.7265 6.53398 4.21021 6.99402Z" fill="#009FE3"/>
<path fill-rule="evenodd" clip-rule="evenodd" d="M55.1373 36.8414L53.4128 37.6785C53.0967 37.8307 52.9632 38.2146 53.1213 38.5259C53.2793 38.8372 53.6657 38.9687 53.9818 38.813L55.7063 37.9759C56.0224 37.8203 56.1558 37.4398 55.9978 37.1285C55.8432 36.8172 55.4534 36.6892 55.1373 36.8414ZM45.2925 36.8414L47.017 37.6785C47.3331 37.8307 47.4666 38.2146 47.3086 38.5259C47.1505 38.8372 46.7642 38.9687 46.4481 38.813L44.7236 37.9759C44.4075 37.8203 44.274 37.4398 44.4321 37.1285C44.5866 36.8172 44.9729 36.6892 45.2925 36.8414ZM57.5712 40.4733C57.4378 41.511 57.2376 42.6006 56.9461 43.8077H43.4873C43.2063 42.6386 43.0096 41.5836 42.8761 40.5736C45.1169 40.9264 47.4771 41.1167 49.9216 41.1167C52.5804 41.1167 55.1513 40.8918 57.5712 40.4733ZM48.4219 27.0767H52.0079L51.4916 28.2597L50.2167 28.4949L48.9417 28.2597L48.4219 27.0767ZM48.4219 34.6034H52.0079L51.4916 35.7864L50.2167 36.0216L48.9417 35.7864L48.4219 34.6034ZM56.198 34.8698C54.5894 36.3468 52.4996 37.2426 50.2132 37.2426C47.9267 37.2426 45.8369 36.3502 44.2283 34.8698C44.2248 34.7453 44.2178 34.6173 44.2143 34.4928C44.1686 32.6042 44.2775 30.636 44.2775 28.7405C44.2775 27.3362 45.6859 26.1809 47.4069 26.1809H53.0194C54.7404 26.1809 56.1488 27.3327 56.1488 28.7405C56.1488 30.6326 56.2577 32.6007 56.212 34.4928C56.2085 34.6207 56.205 34.7453 56.198 34.8698ZM47.154 25.1328H53.2723C55.7343 25.1328 57.7504 27.1183 57.7504 29.543C57.7504 33.7283 57.9611 36.4644 57.6871 39.4564C55.2426 39.8922 52.6296 40.1309 49.9146 40.1309C47.4209 40.1309 45.0186 39.9302 42.7497 39.5601C42.4617 36.5266 42.6759 33.7733 42.6759 29.543C42.6759 27.1183 44.692 25.1328 47.154 25.1328ZM45.7983 29.4842H49.2438C49.595 29.4842 49.883 29.7678 49.883 30.1137V32.8843C49.883 33.2302 49.595 33.5139 49.2438 33.5139H45.7983C45.4471 33.5139 45.1591 33.2302 45.1591 32.8843V30.1137C45.1591 29.7678 45.4471 29.4842 45.7983 29.4842ZM51.2282 29.4842H54.6737C55.0249 29.4842 55.3129 29.7678 55.3129 30.1137V32.8843C55.3129 33.2302 55.0249 33.5139 54.6737 33.5139H51.2282C50.877 33.5139 50.589 33.2302 50.589 32.8843V30.1137C50.589 29.7678 50.877 29.4842 51.2282 29.4842Z" fill="#009FE3"/>
<path fill-rule="evenodd" clip-rule="evenodd" d="M4.1224 38.014C4.40689 37.9137 4.71948 38.0589 4.82484 38.3357L5.55538 40.3073C5.65724 40.5875 5.50972 40.8953 5.22875 40.9991C4.94426 41.0994 4.62816 40.9541 4.52631 40.6774L3.79577 38.7058C3.6904 38.4291 3.83791 38.1178 4.1224 38.014ZM12.1408 38.014C11.8563 37.9137 11.5437 38.0589 11.4383 38.3357L10.7078 40.3073C10.6059 40.5875 10.7535 40.8953 11.0344 40.9991C11.3189 41.0994 11.635 40.9541 11.7369 40.6774L12.4674 38.7058C12.5693 38.4291 12.4218 38.1178 12.1408 38.014ZM11.8282 25.5756H4.43499C4.08728 25.5756 3.8063 25.8557 3.8063 26.1947C3.8063 26.5337 4.09079 26.8139 4.43499 26.8139H11.8247C12.1724 26.8139 12.4534 26.5337 12.4534 26.1947C12.4569 25.8557 12.1724 25.5756 11.8282 25.5756ZM1.9659 27.7478H14.2938C14.638 27.7478 14.9225 28.028 14.9225 28.3669C14.9225 28.7094 14.638 28.9861 14.2938 28.9861H1.9659C1.62171 28.9861 1.33722 28.7059 1.33722 28.3669C1.33722 28.0245 1.62171 27.7478 1.9659 27.7478ZM2.0502 29.9719H14.2095C14.6028 29.9719 14.9225 30.2867 14.9225 30.6741V33.0573L8.12984 30.8816L1.33722 33.0573V30.6741C1.33722 30.2867 1.66034 29.9719 2.0502 29.9719ZM0.638287 34.3129L8.13335 31.9124L15.6284 34.3129C15.9937 34.4305 16.3484 34.9563 16.2501 35.3229L14.1322 43.1367C14.0339 43.4999 13.939 43.8216 13.5562 43.8216H2.71049C2.32766 43.8216 2.23283 43.4999 2.13449 43.1367L0.0166252 35.3229C-0.0817167 34.9597 0.273017 34.4305 0.638287 34.3129Z" fill="#009FE3"/>
<path fill-rule="evenodd" clip-rule="evenodd" d="M22.6388 39.1866V38.6158C22.6388 38.3426 22.8671 38.1177 23.1445 38.1177H24.9814C25.2589 38.1177 25.4872 38.3426 25.4872 38.6158V39.1866C25.4872 39.4598 25.2589 39.6847 24.9814 39.6847H23.1445C22.8671 39.6847 22.6388 39.4598 22.6388 39.1866ZM21.996 28.9584H22.5264C22.8355 28.9584 23.0919 29.2075 23.0919 29.5153V31.8121C23.0919 32.1165 22.839 32.3655 22.5264 32.3655H21.996C21.687 32.3655 21.4306 32.1165 21.4306 31.8121V29.5153C21.4306 29.2075 21.687 28.9584 21.996 28.9584ZM36.5893 39.1866V38.6158C36.5893 38.3426 36.361 38.1177 36.0835 38.1177H34.2466C33.9692 38.1177 33.7409 38.3426 33.7409 38.6158V39.1866C33.7409 39.4598 33.9692 39.6847 34.2466 39.6847H36.087C36.3645 39.6847 36.5893 39.4598 36.5893 39.1866ZM37.2355 28.9584H36.7052C36.3961 28.9584 36.1397 29.2075 36.1397 29.5153V31.8121C36.1397 32.1165 36.3926 32.3655 36.7052 32.3655H37.2355C37.5446 32.3655 37.801 32.1165 37.801 31.8121V29.5153C37.7975 29.2075 37.5446 28.9584 37.2355 28.9584ZM34.4152 22.9087C31.2156 22.9087 28.016 22.9087 24.8164 22.9087C24.1525 22.9087 23.6117 23.4414 23.6117 24.0951V26.9176C27.6156 26.9176 31.616 26.9176 35.6199 26.9176V24.0951C35.6199 23.4414 35.0755 22.9087 34.4152 22.9087ZM37.4182 41.0267C32.2166 41.0267 27.015 41.0267 21.8134 41.0267V43.9876C21.8134 44.3785 22.14 44.7001 22.5369 44.7001H23.3693C23.7662 44.7001 24.0928 44.3785 24.0928 43.9876V43.403C27.7771 43.403 31.4615 43.403 35.1458 43.403V43.9876C35.1458 44.3785 35.4724 44.7001 35.8693 44.7001H36.7017C37.0986 44.7001 37.4252 44.3785 37.4252 43.9876V41.0267H37.4182ZM26.7656 35.3056C26.4811 35.3056 26.2493 35.5339 26.2493 35.8141V38.9998C26.2493 39.28 26.4811 39.5083 26.7656 39.5083C28.6657 39.5083 30.5623 39.5083 32.4624 39.5083C32.7469 39.5083 32.9787 39.28 32.9787 38.9998V35.8141C32.9787 35.5339 32.7469 35.3056 32.4624 35.3056C30.5658 35.3056 28.6657 35.3056 26.7656 35.3056ZM24.8936 28.3946C24.6478 28.3946 24.4476 28.5918 24.4476 28.8339V31.5838C24.4476 31.8259 24.6478 32.0231 24.8936 32.0231C28.0722 32.0231 31.1559 32.0231 34.3344 32.0231C34.5803 32.0231 34.7805 31.8259 34.7805 31.5838V28.8339C34.7805 28.5918 34.5803 28.3946 34.3344 28.3946C31.1559 28.3946 28.0722 28.3946 24.8936 28.3946ZM24.8164 27.5575C28.016 27.5575 31.2156 27.5575 34.4152 27.5575C35.079 27.5575 35.6199 28.0902 35.6199 28.744V36.2119C36.6209 36.2776 37.4182 37.1043 37.4182 38.1039V40.5286C32.2166 40.5286 27.015 40.5286 21.8134 40.5286V38.1039C21.8134 37.1008 22.6107 36.2741 23.6117 36.2119V28.744C23.6117 28.0902 24.1525 27.5575 24.8164 27.5575Z" fill="#009FE3"/>
<path d="M74.054 26.6651H70.0923V7.20846H74.054V26.6651Z" fill="#009FE3"/>
<path d="M91.6502 10.2143H86.0588V26.6651H82.097V10.2143H76.5337V7.20846H91.6502V10.2143Z" fill="#009FE3"/>
<path d="M109.243 10.2143H103.651V26.6651H99.6897V10.2143H94.1263V7.20846H109.243V10.2143Z" fill="#009FE3"/>
<path d="M127.394 20.0378L127.422 20.1173C127.457 22.21 126.811 23.8737 125.476 25.1017C124.142 26.3296 122.291 26.9453 119.92 26.9453C117.542 26.9453 115.611 26.1912 114.125 24.6866C112.643 23.1819 111.898 21.2449 111.898 18.8721V15.0084C111.898 12.6494 112.622 10.7089 114.069 9.1939C115.516 7.67888 117.398 6.92136 119.713 6.92136C122.154 6.92136 124.064 7.53706 125.438 8.77191C126.811 10.0068 127.482 11.6878 127.447 13.8151L127.419 13.8946H123.566C123.566 12.6114 123.253 11.629 122.628 10.9476C122.003 10.2662 121.03 9.9272 119.709 9.9272C118.526 9.9272 117.584 10.4011 116.885 11.3488C116.19 12.2966 115.839 13.5038 115.839 14.9738V18.8582C115.839 20.3456 116.204 21.5631 116.938 22.5109C117.672 23.4587 118.663 23.9325 119.909 23.9325C121.149 23.9325 122.066 23.6039 122.656 22.9502C123.25 22.2965 123.545 21.321 123.545 20.0308H127.394V20.0378Z" fill="#009FE3"/>
<path d="M149.904 26.6651H136.417V24.1124L142.809 17.364C143.733 16.3228 144.386 15.4408 144.776 14.7248C145.166 14.0088 145.359 13.3412 145.359 12.7255C145.359 11.9057 145.134 11.2347 144.688 10.7158C144.242 10.1935 143.606 9.93413 142.781 9.93413C141.868 9.93413 141.172 10.2385 140.698 10.8507C140.224 11.4595 139.985 12.2724 139.985 13.2893H136.132L136.104 13.2098C136.059 11.4561 136.645 9.96871 137.86 8.75462C139.076 7.53707 140.716 6.93174 142.777 6.93174C144.815 6.93174 146.413 7.45405 147.575 8.4952C148.738 9.53634 149.317 10.9268 149.317 12.6632C149.317 13.8393 148.991 14.9254 148.334 15.9181C147.677 16.9108 146.595 18.2149 145.085 19.8268L141.569 23.597L141.597 23.6627H149.9V26.6651H149.904Z" fill="#009FE3"/>
<path d="M165.67 19.0865C165.67 21.66 165.069 23.6143 163.872 24.946C162.674 26.2777 161.052 26.9453 159.007 26.9453C156.946 26.9453 155.313 26.2777 154.108 24.946C152.903 23.6143 152.303 21.66 152.303 19.0865V14.7974C152.303 12.2309 152.903 10.28 154.101 8.93794C155.299 7.59587 156.925 6.92829 158.979 6.92829C161.023 6.92829 162.65 7.59933 163.858 8.93794C165.066 10.28 165.67 12.2309 165.67 14.7974V19.0865ZM161.722 14.3927C161.722 12.8535 161.487 11.7259 161.016 11.0064C160.546 10.2904 159.868 9.93066 158.979 9.93066C158.084 9.93066 157.406 10.2869 156.942 10.9995C156.482 11.712 156.25 12.8431 156.25 14.3893V19.4497C156.25 21.0166 156.482 22.1546 156.949 22.8672C157.416 23.5797 158.101 23.936 159.004 23.936C159.889 23.936 160.563 23.5797 161.027 22.8672C161.487 22.1546 161.719 21.0166 161.719 19.4497V14.3927H161.722Z" fill="#009FE3"/>
<path d="M181.791 26.6651H168.304V24.1124L174.696 17.364C175.62 16.3228 176.273 15.4408 176.663 14.7248C177.053 14.0088 177.246 13.3412 177.246 12.7255C177.246 11.9057 177.022 11.2347 176.576 10.7158C176.129 10.1935 175.494 9.93413 174.668 9.93413C173.755 9.93413 173.06 10.2385 172.586 10.8507C172.111 11.4595 171.873 12.2724 171.873 13.2893H168.02L167.992 13.2098C167.946 11.4561 168.533 9.96871 169.748 8.75462C170.963 7.53707 172.603 6.93174 174.665 6.93174C176.702 6.93174 178.3 7.45405 179.463 8.4952C180.625 9.53634 181.205 10.9268 181.205 12.6632C181.205 13.8393 180.878 14.9254 180.221 15.9181C179.564 16.9108 178.483 18.2149 176.972 19.8268L173.457 23.597L173.485 23.6627H181.788V26.6651H181.791Z" fill="#009FE3"/>
<path d="M192.184 6.92829C192.925 6.92829 193.61 6.99747 194.238 7.13583C194.867 7.27419 195.499 7.47826 196.132 7.7446L195.426 10.6052C194.828 10.4011 194.298 10.2454 193.831 10.1451C193.364 10.0413 192.823 9.99292 192.208 9.99292C191.004 9.99292 190.038 10.4357 189.311 11.3212C188.584 12.2067 188.247 13.4346 188.299 15.0015L188.341 15.0672C188.784 14.6141 189.346 14.2578 190.024 13.9984C190.702 13.739 191.467 13.611 192.317 13.611C194.08 13.611 195.464 14.2267 196.462 15.4615C197.463 16.6964 197.961 18.2702 197.961 20.1865C197.961 22.1477 197.343 23.7631 196.11 25.036C194.874 26.3089 193.276 26.9453 191.313 26.9453C189.223 26.9453 187.523 26.2466 186.21 24.8526C184.899 23.4587 184.243 21.5286 184.243 19.0589V15.2644C184.243 12.7151 184.987 10.6882 186.48 9.18353C187.976 7.67888 189.876 6.92829 192.184 6.92829ZM191.274 16.5615C190.54 16.5615 189.918 16.6756 189.402 16.9074C188.886 17.1391 188.489 17.4539 188.208 17.8551V19.1488C188.208 20.688 188.489 21.871 189.054 22.6977C189.62 23.5244 190.371 23.9395 191.313 23.9395C192.128 23.9395 192.781 23.5728 193.273 22.8395C193.764 22.1062 194.014 21.2173 194.014 20.1796C194.014 19.1038 193.764 18.2322 193.266 17.5646C192.77 16.897 192.106 16.5615 191.274 16.5615Z" fill="#009FE3"/>
<path d="M198 31.0995H70.0888V31.7948H198V31.0995Z" fill="#009FE3"/>
<path d="M71.1178 40.9956H70.0923V35.9524H71.1178V40.9956Z" fill="#009FE3"/>
<path d="M76.2808 40.9956H75.2587L73.19 37.5505L73.169 37.5539V40.9956H72.1434V35.9524H73.169L75.2377 39.3941L75.2587 39.3906V35.9524H76.2808V40.9956Z" fill="#009FE3"/>
<path d="M80.7764 36.7341H79.3259V40.9991H78.3003V36.7341H76.8568V35.9559H80.7729V36.7341H80.7764Z" fill="#009FE3"/>
<path d="M84.4994 38.7784H82.378V40.2139H84.8576V40.9921H81.3524V35.949H84.8506V36.7272H82.378V37.9967H84.4994V38.7784Z" fill="#009FE3"/>
<path d="M86.5119 38.979V40.9956H85.4863V35.9524H87.418C88.001 35.9524 88.4576 36.0839 88.7878 36.3467C89.1179 36.6096 89.283 36.9728 89.283 37.4432C89.283 37.7027 89.2127 37.9275 89.0758 38.1143C88.9388 38.3011 88.7351 38.4533 88.4682 38.5674C88.7702 38.6539 88.988 38.8026 89.1214 39.0067C89.2549 39.2108 89.3216 39.4667 89.3216 39.7677V40.1378C89.3216 40.2796 89.3427 40.4249 89.3813 40.5805C89.42 40.7327 89.4867 40.8469 89.5815 40.923V40.9956H88.5244C88.4295 40.923 88.3698 40.7984 88.3417 40.6255C88.3136 40.4525 88.2996 40.29 88.2996 40.1343V39.778C88.2996 39.5255 88.2293 39.3318 88.0888 39.19C87.9483 39.0517 87.7517 38.979 87.4988 38.979H86.5119ZM86.5119 38.2008H87.3969C87.6849 38.2008 87.8992 38.1419 88.0432 38.0209C88.1837 37.8998 88.2574 37.7234 88.2574 37.4882C88.2574 37.2565 88.1872 37.0731 88.0432 36.9382C87.9027 36.8033 87.692 36.7341 87.4145 36.7341H86.5119V38.2008Z" fill="#009FE3"/>
<path d="M94.3862 40.9956H93.3642L91.2955 37.5505L91.2744 37.5539V40.9956H90.2488V35.9524H91.2744L93.3431 39.3941L93.3642 39.3906V35.9524H94.3862V40.9956Z" fill="#009FE3"/>
<path d="M98.0951 39.9095H96.2969L95.9492 40.9956H94.9131L96.6762 35.9524H97.7263L99.4825 40.9956H98.4464L98.0951 39.9095ZM96.5498 39.1174H97.8387L97.2065 37.1354H97.1855L96.5498 39.1174Z" fill="#009FE3"/>
<path d="M103.497 36.7341H102.046V40.9991H101.021V36.7341H99.5773V35.9559H103.493V36.7341H103.497Z" fill="#009FE3"/>
<path d="M105.158 40.9956H104.133V35.9524H105.158V40.9956Z" fill="#009FE3"/>
<path d="M110.3 38.9271C110.3 39.5463 110.1 40.0582 109.703 40.4629C109.306 40.8676 108.79 41.0682 108.154 41.0682C107.522 41.0682 107.013 40.8676 106.616 40.4629C106.222 40.0582 106.026 39.5463 106.026 38.9271V38.0209C106.026 37.4052 106.222 36.8933 106.616 36.4886C107.009 36.0839 107.518 35.8798 108.151 35.8798C108.786 35.8798 109.303 36.0839 109.703 36.4886C110.1 36.8933 110.3 37.4052 110.3 38.0209V38.9271ZM109.275 38.0174C109.275 37.6231 109.176 37.3014 108.976 37.0489C108.776 36.7964 108.502 36.6719 108.154 36.6719C107.803 36.6719 107.532 36.7964 107.343 37.0489C107.15 37.3014 107.055 37.6231 107.055 38.0174V38.9341C107.055 39.3353 107.153 39.6604 107.346 39.9129C107.539 40.1654 107.81 40.29 108.158 40.29C108.509 40.29 108.783 40.1654 108.979 39.9129C109.176 39.6604 109.275 39.3353 109.275 38.9341V38.0174Z" fill="#009FE3"/>
<path d="M115.242 40.9956H114.22L112.151 37.5505L112.13 37.5539V40.9956H111.104V35.9524H112.13L114.199 39.3941L114.22 39.3906V35.9524H115.242V40.9956Z" fill="#009FE3"/>
<path d="M118.947 39.9095H117.149L116.801 40.9956H115.765L117.528 35.9524H118.578L120.334 40.9956H119.298L118.947 39.9095ZM117.405 39.1174H118.694L118.062 37.1354H118.041L117.405 39.1174Z" fill="#009FE3"/>
<path d="M121.838 40.2173H124.117V40.9956H120.812V35.9524H121.838V40.2173Z" fill="#009FE3"/>
<path d="M130.365 39.28L130.372 39.3007C130.383 39.8438 130.214 40.2727 129.867 40.5909C129.522 40.9091 129.041 41.0682 128.427 41.0682C127.808 41.0682 127.31 40.8745 126.923 40.4837C126.541 40.0928 126.347 39.5913 126.347 38.9756V37.9759C126.347 37.3637 126.534 36.8621 126.909 36.4678C127.285 36.0735 127.773 35.8798 128.374 35.8798C129.006 35.8798 129.501 36.0389 129.86 36.3606C130.214 36.6788 130.39 37.1146 130.379 37.6681L130.372 37.6888H129.375C129.375 37.3568 129.294 37.1008 129.133 36.9244C128.971 36.748 128.718 36.6581 128.377 36.6581C128.072 36.6581 127.826 36.7791 127.647 37.0247C127.468 37.2703 127.376 37.5851 127.376 37.9655V38.9721C127.376 39.356 127.471 39.6743 127.661 39.9199C127.851 40.1654 128.107 40.2865 128.43 40.2865C128.75 40.2865 128.989 40.2 129.143 40.0305C129.298 39.8611 129.375 39.6085 129.375 39.273H130.365V39.28Z" fill="#009FE3"/>
<path d="M135.223 38.9271C135.223 39.5463 135.023 40.0582 134.626 40.4629C134.229 40.8676 133.712 41.0682 133.077 41.0682C132.445 41.0682 131.935 40.8676 131.538 40.4629C131.145 40.0582 130.948 39.5463 130.948 38.9271V38.0209C130.948 37.4052 131.145 36.8933 131.538 36.4886C131.932 36.0839 132.441 35.8798 133.073 35.8798C133.709 35.8798 134.225 36.0839 134.626 36.4886C135.023 36.8933 135.223 37.4052 135.223 38.0209V38.9271ZM134.197 38.0174C134.197 37.6231 134.099 37.3014 133.899 37.0489C133.698 36.7964 133.424 36.6719 133.077 36.6719C132.726 36.6719 132.455 36.7964 132.265 37.0489C132.072 37.3014 131.977 37.6231 131.977 38.0174V38.9341C131.977 39.3353 132.076 39.6604 132.269 39.9129C132.462 40.1654 132.733 40.29 133.08 40.29C133.431 40.29 133.705 40.1654 133.902 39.9129C134.099 39.6604 134.197 39.3353 134.197 38.9341V38.0174Z" fill="#009FE3"/>
<path d="M140.164 40.9956H139.142L137.074 37.5505L137.053 37.5539V40.9956H136.027V35.9524H137.053L139.121 39.3941L139.142 39.3906V35.9524H140.164V40.9956Z" fill="#009FE3"/>
<path d="M144.295 38.8995H142.149V40.9956H141.123V35.9524H144.653V36.7307H142.149V38.1212H144.295V38.8995Z" fill="#009FE3"/>
<path d="M148.429 38.7784H146.307V40.2139H148.787V40.9921H145.282V35.949H148.78V36.7272H146.307V37.9967H148.429V38.7784Z" fill="#009FE3"/>
<path d="M150.445 38.979V40.9956H149.419V35.9524H151.351C151.934 35.9524 152.39 36.0839 152.721 36.3467C153.051 36.6096 153.216 36.9728 153.216 37.4432C153.216 37.7027 153.146 37.9275 153.009 38.1143C152.872 38.3011 152.668 38.4533 152.401 38.5674C152.703 38.6539 152.921 38.8026 153.054 39.0067C153.188 39.2108 153.254 39.4667 153.254 39.7677V40.1378C153.254 40.2796 153.275 40.4249 153.314 40.5805C153.353 40.7327 153.419 40.8469 153.514 40.923V40.9956H152.457C152.362 40.923 152.303 40.7984 152.275 40.6255C152.246 40.4525 152.232 40.29 152.232 40.1343V39.778C152.232 39.5255 152.162 39.3318 152.022 39.19C151.881 39.0517 151.684 38.979 151.432 38.979H150.445ZM150.445 38.2008H151.33C151.618 38.2008 151.832 38.1419 151.976 38.0209C152.116 37.8998 152.19 37.7234 152.19 37.4882C152.19 37.2565 152.12 37.0731 151.976 36.9382C151.835 36.8033 151.625 36.7341 151.347 36.7341H150.445V38.2008Z" fill="#009FE3"/>
<path d="M157.325 38.7784H155.204V40.2139H157.683V40.9921H154.178V35.949H157.676V36.7272H155.204V37.9967H157.325V38.7784Z" fill="#009FE3"/>
<path d="M162.453 40.9956H161.431L159.362 37.5505L159.341 37.5539V40.9956H158.316V35.9524H159.341L161.41 39.3941L161.431 39.3906V35.9524H162.453V40.9956Z" fill="#009FE3"/>
<path d="M167.279 39.28L167.286 39.3007C167.296 39.8438 167.128 40.2727 166.78 40.5909C166.436 40.9091 165.955 41.0682 165.34 41.0682C164.722 41.0682 164.223 40.8745 163.837 40.4837C163.454 40.0928 163.261 39.5913 163.261 38.9756V37.9759C163.261 37.3637 163.447 36.8621 163.823 36.4678C164.198 36.0735 164.687 35.8798 165.287 35.8798C165.919 35.8798 166.415 36.0389 166.773 36.3606C167.128 36.6788 167.303 37.1146 167.293 37.6681L167.286 37.6888H166.288C166.288 37.3568 166.207 37.1008 166.046 36.9244C165.884 36.748 165.631 36.6581 165.291 36.6581C164.985 36.6581 164.739 36.7791 164.56 37.0247C164.381 37.2703 164.29 37.5851 164.29 37.9655V38.9721C164.29 39.356 164.385 39.6743 164.574 39.9199C164.764 40.1654 165.02 40.2865 165.343 40.2865C165.663 40.2865 165.902 40.2 166.056 40.0305C166.211 39.8611 166.288 39.6085 166.288 39.273H167.279V39.28Z" fill="#009FE3"/>
<path d="M171.163 38.7784H169.042V40.2139H171.521V40.9921H168.016V35.949H171.514V36.7272H169.042V37.9967H171.163V38.7784Z" fill="#009FE3"/>
<path d="M173.681 39.6397C173.681 39.3664 173.759 39.1312 173.91 38.9341C174.061 38.7369 174.293 38.5294 174.605 38.3149C174.447 38.1039 174.328 37.9102 174.247 37.7338C174.17 37.5574 174.128 37.381 174.128 37.1977C174.128 36.7999 174.254 36.4782 174.507 36.2395C174.76 36.0009 175.097 35.8798 175.522 35.8798C175.894 35.8798 176.196 35.9939 176.432 36.2222C176.663 36.4505 176.783 36.7238 176.783 37.0489C176.783 37.2738 176.727 37.4813 176.611 37.6681C176.495 37.8549 176.34 38.0174 176.14 38.1593L175.813 38.3875L176.783 39.5013C176.867 39.363 176.934 39.2142 176.979 39.0517C177.025 38.8891 177.05 38.7196 177.05 38.5397H177.815C177.815 38.858 177.777 39.152 177.696 39.4183C177.615 39.6847 177.496 39.9233 177.331 40.1309L178.061 40.9748L178.054 40.9921H176.916L176.646 40.6843C176.446 40.8123 176.242 40.9057 176.031 40.9714C175.82 41.0336 175.596 41.0682 175.353 41.0682C174.84 41.0682 174.437 40.9368 174.135 40.6705C173.832 40.4076 173.681 40.0651 173.681 39.6397ZM175.409 40.29C175.532 40.29 175.659 40.2761 175.782 40.245C175.905 40.2139 176.024 40.1689 176.14 40.1066L175.086 38.9029L175.02 38.9479C174.9 39.0586 174.819 39.1658 174.774 39.2696C174.732 39.3733 174.707 39.4806 174.707 39.5843C174.707 39.7884 174.77 39.9579 174.9 40.0893C175.03 40.2242 175.199 40.29 175.409 40.29ZM175.051 37.1873C175.051 37.2876 175.076 37.3879 175.128 37.4951C175.178 37.5989 175.255 37.7165 175.357 37.8445L175.659 37.6508C175.789 37.5678 175.88 37.4813 175.926 37.3948C175.971 37.3083 175.996 37.2115 175.996 37.1077C175.996 36.9936 175.954 36.8898 175.87 36.7999C175.785 36.7099 175.673 36.665 175.532 36.665C175.381 36.665 175.262 36.7134 175.181 36.8172C175.09 36.9106 175.051 37.0351 175.051 37.1873Z" fill="#009FE3"/>
<path d="M183.621 38.7784H181.5V40.2139H183.979V40.9921H180.474V35.949H183.972V36.7272H181.5V37.9967H183.621V38.7784Z" fill="#009FE3"/>
<path d="M186.413 37.7407L187.372 35.9524H188.566L187.045 38.4533L188.654 40.9956H187.414L186.427 39.1762L185.44 40.9956H184.243L185.802 38.4533L184.281 35.9524H185.468L186.413 37.7407Z" fill="#009FE3"/>
<path d="M190.217 40.9991H189.191V35.9559H191.232C191.822 35.9559 192.282 36.1046 192.619 36.3986C192.956 36.6926 193.125 37.0835 193.125 37.5643C193.125 38.0486 192.956 38.436 192.619 38.7265C192.282 39.0205 191.818 39.1658 191.232 39.1658H190.217V40.9991ZM191.228 38.3875C191.513 38.3875 191.731 38.3114 191.878 38.1558C192.026 38.0036 192.099 37.8064 192.099 37.5678C192.099 37.3256 192.026 37.125 191.878 36.9659C191.731 36.8068 191.513 36.7272 191.225 36.7272H190.213V38.3875H191.228Z" fill="#009FE3"/>
<path d="M198 38.9271C198 39.5463 197.8 40.0582 197.403 40.4629C197.006 40.8676 196.49 41.0682 195.854 41.0682C195.222 41.0682 194.713 40.8676 194.316 40.4629C193.922 40.0582 193.726 39.5463 193.726 38.9271V38.0209C193.726 37.4052 193.922 36.8933 194.316 36.4886C194.709 36.0839 195.218 35.8798 195.851 35.8798C196.486 35.8798 197.003 36.0839 197.403 36.4886C197.8 36.8933 198 37.4052 198 38.0209V38.9271ZM196.974 38.0174C196.974 37.6231 196.876 37.3014 196.676 37.0489C196.476 36.7964 196.202 36.6719 195.854 36.6719C195.503 36.6719 195.232 36.7964 195.043 37.0489C194.85 37.3014 194.755 37.6231 194.755 38.0174V38.9341C194.755 39.3353 194.853 39.6604 195.046 39.9129C195.239 40.1654 195.51 40.29 195.858 40.29C196.209 40.29 196.483 40.1654 196.679 39.9129C196.876 39.6604 196.974 39.3353 196.974 38.9341V38.0174Z" fill="#009FE3"/>
</svg>
