<svg width="58" height="48" viewBox="0 0 58 48" fill="none" xmlns="http://www.w3.org/2000/svg">
<path fill-rule="evenodd" clip-rule="evenodd" d="M20.6298 43.9703C20.6298 45.0045 21.4833 45.8485 22.5369 45.8485H23.3693C24.2123 45.8485 24.9323 45.5545 25.1816 44.8039H34.0535C34.3028 45.5545 35.0228 45.8485 35.8658 45.8485H36.6982C37.7483 45.8485 38.6018 45.0045 38.6018 43.9703V43.4895C39.7433 42.9015 40.8672 42.1578 41.8049 41.4245C41.9454 42.31 42.1245 43.1886 42.3353 44.0602L42.4231 44.42C38.5105 46.8067 34.064 48 29.6175 48C24.5775 48 19.541 46.4677 15.2772 43.403L16.1201 40.2934C17.1843 41.3346 18.8842 42.5936 20.6298 43.4895V43.9703ZM9.46096 10.5049L11.8809 11.5391L11.2662 12.1375L11.2381 12.1721C10.8342 12.6148 10.346 13.023 9.92809 13.4623C9.77706 13.6179 9.61199 13.7424 9.46096 13.905L8.59696 14.7594C8.53725 14.7455 8.47754 14.7352 8.41432 14.7213C8.02798 14.6314 7.63461 14.5518 7.24476 14.4723C7.84535 13.0956 8.58642 11.7674 9.46096 10.5049ZM20.9248 22.4694H23.0813C22.695 22.8706 22.4526 23.4068 22.4316 23.9983C22.4316 24.0259 22.4316 24.0536 22.4316 24.0813V25.5271H18.6805C18.7894 28.3185 19.1898 31.0027 19.8571 33.4551L21.7607 33.5C21.838 33.5104 21.9153 33.5173 21.9925 33.5173H22.4245V35.316C21.0197 35.9628 20.6263 36.5924 20.6263 38.0935V41.971C19.6991 40.795 18.9404 39.5255 18.1818 38.0624L17.2686 36.0424L17.3845 35.61C17.5777 34.8975 17.251 34.0984 16.6891 33.6003C16.1974 31.6391 15.6389 27.4365 15.5722 25.5306H13.5105C13.2436 24.8699 12.5903 24.3995 11.8247 24.3995H5.24982C5.24631 24.2681 5.24631 24.1332 5.24631 24.0017C5.24631 22.1685 5.46055 20.3352 5.88202 18.5435L6.80222 19.1246C6.8268 19.173 6.84788 19.218 6.87246 19.263C6.94973 19.4048 7.01998 19.55 7.09724 19.6919C7.24827 19.972 7.39578 20.2557 7.54681 20.5359C7.81725 21.0374 8.13686 21.5735 8.3792 22.0889L8.43188 22.2619C8.42486 22.3345 8.42135 22.4037 8.41432 22.4729H8.4951L8.88847 23.7907L10.3776 22.4729H15.5757C15.6319 20.9336 15.7689 19.4255 15.9867 17.9589L16.1623 18.4778C16.1974 18.585 16.2325 18.6957 16.2711 18.8029C16.3098 18.9067 16.3414 19.0139 16.38 19.1177C16.4116 19.2076 16.4432 19.2975 16.4748 19.3875L16.4784 19.3944L17.525 22.4936C17.5601 22.6043 17.5952 22.7115 17.6339 22.8188C17.6655 22.9052 17.7006 22.9952 17.7287 23.0816L18.2591 24.8561L19.2284 23.9983L19.6569 23.6212L20.5455 22.8326L20.5596 22.8188C20.6087 22.7703 20.6544 22.7219 20.7 22.6735C20.7703 22.6147 20.837 22.5524 20.9073 22.4902L20.9248 22.4694ZM36.2135 3.54889C38.9565 4.27873 42.3247 6.72422 43.6488 8.27038C42.8586 8.95871 42.0227 9.58132 41.1516 10.1382C39.7994 7.50249 38.4718 5.49282 36.2135 3.54889ZM31.1664 13.4208V3.27909C34.6611 4.27181 37.088 8.27729 38.4051 11.6152C36.1432 12.6287 33.6987 13.2444 31.1664 13.4208ZM43.6559 22.4694C43.5364 19.1696 43.0342 15.9908 42.1878 13.106C43.4732 12.3416 44.6884 11.4526 45.8264 10.453C48.7591 13.8462 50.4976 18.0212 50.8208 22.4694H43.6559ZM13.795 5.74879C18.3433 1.91626 23.9804 0 29.6175 0C35.8517 0 42.0859 2.34517 46.8449 7.03206C51.6075 11.7224 53.9853 17.8621 53.9853 23.9983C53.7535 23.9706 53.5146 23.9533 53.2758 23.9533H47.1575C46.9152 23.9533 46.6764 23.9671 46.4446 23.9983C43.6629 24.3476 41.4958 26.6997 41.4958 29.5292C41.4958 30.8608 41.4677 32.1891 41.4467 33.5173C41.4361 34.005 41.4291 34.4893 41.4256 34.977C41.4186 35.4647 41.4186 35.9559 41.4221 36.4436L41.1516 37.8652C40.3579 39.4114 39.5747 40.7431 38.6053 41.971V38.0935C38.6053 36.6304 38.1909 35.9559 36.807 35.316V33.5173H37.239C37.3198 33.5173 37.3971 33.5104 37.4709 33.5L39.3745 33.4551C40.0418 31.0027 40.4457 28.3185 40.5511 25.5271H36.8035V24.0813C36.8035 24.0536 36.8035 24.0259 36.8 23.9983C36.7789 23.4068 36.5366 22.8706 36.1503 22.4694H40.5475C40.4387 19.678 40.0383 16.9939 39.371 14.5415C36.8 15.6483 34.0324 16.309 31.1664 16.4854V21.7292H28.0616V16.4854C25.6558 16.3367 23.3202 15.849 21.1075 15.0396L20.8967 12.812C20.8897 12.7532 20.8862 12.6944 20.8792 12.6321L20.7808 11.591L20.823 11.6117C23.0848 12.6252 25.5293 13.2374 28.0616 13.4173V3.27564C26.7762 3.63883 25.6347 4.41363 24.6443 5.40981C24.711 4.85984 24.5881 4.31332 24.1596 3.84636C23.8083 3.45896 23.3728 3.23067 22.8601 3.13036C22.5404 3.07155 22.2278 3.06464 21.9082 3.10269C21.2234 3.18224 20.5525 3.48317 20.0433 3.93975C19.6429 4.29948 19.2144 4.62463 18.814 4.9809C18.7156 5.06738 18.6032 5.14348 18.5014 5.23341C18.3995 5.32334 18.2977 5.41327 18.1923 5.50666C18.0975 5.58968 17.9921 5.66232 17.8938 5.74879L17.1913 6.35757C17.0579 6.33336 16.9244 6.30914 16.7909 6.28493C15.8216 6.10506 14.8522 5.94941 13.8864 5.76263H13.8793L13.795 5.74879Z" fill="#009FE3"/>
<path fill-rule="evenodd" clip-rule="evenodd" d="M4.21021 6.99402C4.27343 7.03553 4.36474 7.07011 4.43499 7.09778C4.51928 7.12891 4.58601 7.16351 4.67382 7.19809L6.28944 7.89335C6.33509 7.91064 6.35968 7.91756 6.40183 7.93486L7.67676 8.48483C8.02096 8.6474 8.36515 8.77884 8.71637 8.92758C8.76554 8.94833 8.79013 8.96562 8.84281 8.98637L13.4754 10.9684C14.062 11.2347 14.0093 11.1067 13.7213 11.3904C13.644 11.4665 13.5913 11.5287 13.4895 11.6186C13.342 11.7501 13.1944 11.9334 13.0434 12.0614L12.1302 12.9469C11.9933 13.106 11.0309 14.0157 10.7816 14.2751C10.6411 14.4239 10.4479 14.5657 10.3179 14.7179L8.97276 16.0461L8.55481 15.9562C8.41081 15.9216 8.28437 15.9008 8.13686 15.8663C7.29744 15.6691 6.44046 15.5238 5.60455 15.3163C5.46758 15.4373 5.36924 15.4996 5.22875 15.6241L4.48767 16.2779C4.58601 16.3782 5.15148 16.7102 5.28143 16.7898L7.68378 18.3117C7.72944 18.3636 7.86993 18.6438 7.91208 18.7268C7.98583 18.8652 8.05959 19.0105 8.13686 19.1557C8.2914 19.4394 8.43188 19.7126 8.58642 19.9997C8.65315 20.1242 9.45745 21.5977 9.48555 21.6981L9.9035 21.328C9.9597 21.2726 9.95618 21.2588 10.0264 21.1965C10.1177 21.1135 10.2161 21.0305 10.3109 20.9475L10.5814 20.6846C10.5357 20.5946 10.4338 19.6123 10.4057 19.4255L10.1599 17.5473C10.1494 17.4747 10.1529 17.3882 10.1213 17.3294L10.7921 16.7794C10.9045 16.6999 11.0134 16.5719 11.1293 16.4854C11.2381 16.4024 11.3435 16.3194 11.4629 16.2121C11.5823 16.1084 11.6701 16.053 11.7966 15.9389L12.1302 15.6656C12.3656 15.4581 12.5728 15.2817 12.8151 15.0811L13.6475 14.3927C13.7248 14.327 13.7459 14.3305 13.8196 14.2648C13.9285 14.1714 14.0374 14.0538 14.1568 13.9777C14.2727 13.9016 14.3851 13.7909 14.494 13.694C14.5677 13.6283 14.5888 13.6283 14.6555 13.5764L15.1648 13.1475C15.2245 13.0956 15.2807 13.0437 15.3404 12.9919C15.4177 12.9227 15.4458 12.9227 15.5125 12.8639C15.5406 12.9676 15.5827 13.061 15.6144 13.1717C15.6495 13.2789 15.6846 13.3723 15.7162 13.4796C15.9024 14.1022 16.1517 14.7075 16.3414 15.3301L17.2827 18.118C17.3213 18.2287 17.3494 18.3187 17.388 18.4259C17.4267 18.5366 17.4583 18.6369 17.4934 18.7337C17.532 18.8375 17.5671 18.9378 17.5988 19.0416L18.6419 22.1374C18.6805 22.248 18.7086 22.338 18.7472 22.4452C18.7859 22.5559 18.828 22.6631 18.8596 22.7669L18.8737 22.7565L19.7342 21.9955C19.7974 21.9333 19.8185 21.8952 19.8993 21.826C19.973 21.7638 20.0433 21.6981 20.117 21.6358C20.261 21.5113 20.3664 21.3902 20.5209 21.2519C20.4928 21.1377 20.4893 21.0132 20.4788 20.8956C20.3207 19.0796 20.1276 17.2706 19.966 15.4581L19.7272 12.9365C19.7201 12.8673 19.7166 12.8258 19.7131 12.7601L19.5234 10.7712C19.5129 10.6432 19.5024 10.5325 19.4918 10.4045C19.4813 10.3077 19.4497 9.74389 19.4111 9.66779C19.5445 9.55018 19.692 9.45334 19.8255 9.34957C19.8747 9.31152 19.9274 9.25963 19.973 9.21813C20.0819 9.12128 20.1451 9.09015 20.254 8.9933C20.3453 8.91374 20.4366 8.81689 20.535 8.75463C20.7317 8.62665 20.8967 8.40873 21.0969 8.28075C21.3147 8.13893 21.9785 7.51286 22.2279 7.29495C22.7617 6.82107 23.9594 5.38213 23.2921 4.65229C23.1024 4.44476 22.8917 4.34791 22.6458 4.29948C22.4421 4.26144 22.2559 4.26144 22.0593 4.28219C21.694 4.3237 21.2304 4.4828 20.8511 4.82524C20.4401 5.19535 20.0257 5.50666 19.6148 5.86985C19.4954 5.97362 19.4146 6.02205 19.3057 6.1189C19.2038 6.21229 19.0985 6.30222 18.9966 6.39215C18.8807 6.49592 18.807 6.53743 18.6875 6.6412L17.6128 7.57166C17.5074 7.66159 17.4091 7.60626 17.1668 7.55783C16.9736 7.51978 16.7769 7.48864 16.5837 7.45059C15.6144 7.27073 14.6345 7.11508 13.6651 6.92483L12.2075 6.6585C12.1513 6.64812 12.1197 6.64466 12.067 6.63428L11.0415 6.4475C10.9888 6.44058 10.9501 6.43021 10.901 6.42329L6.08221 5.55163C5.91714 5.52049 5.94875 5.48936 5.78368 5.6381C5.25685 6.09468 4.7265 6.53398 4.21021 6.99402Z" fill="#009FE3"/>
<path fill-rule="evenodd" clip-rule="evenodd" d="M55.1373 36.8414L53.4128 37.6785C53.0967 37.8307 52.9632 38.2146 53.1213 38.5259C53.2793 38.8372 53.6657 38.9687 53.9818 38.813L55.7063 37.9759C56.0224 37.8203 56.1558 37.4398 55.9978 37.1285C55.8432 36.8172 55.4534 36.6892 55.1373 36.8414ZM45.2925 36.8414L47.017 37.6785C47.3331 37.8307 47.4666 38.2146 47.3086 38.5259C47.1505 38.8372 46.7642 38.9687 46.4481 38.813L44.7236 37.9759C44.4075 37.8203 44.274 37.4398 44.4321 37.1285C44.5866 36.8172 44.9729 36.6892 45.2925 36.8414ZM57.5712 40.4733C57.4378 41.511 57.2376 42.6006 56.9461 43.8077H43.4873C43.2063 42.6386 43.0096 41.5836 42.8761 40.5736C45.1169 40.9264 47.4771 41.1167 49.9216 41.1167C52.5804 41.1167 55.1513 40.8918 57.5712 40.4733ZM48.4219 27.0767H52.0079L51.4916 28.2597L50.2167 28.4949L48.9417 28.2597L48.4219 27.0767ZM48.4219 34.6034H52.0079L51.4916 35.7864L50.2167 36.0216L48.9417 35.7864L48.4219 34.6034ZM56.198 34.8698C54.5894 36.3468 52.4996 37.2426 50.2132 37.2426C47.9267 37.2426 45.8369 36.3502 44.2283 34.8698C44.2248 34.7453 44.2178 34.6173 44.2143 34.4928C44.1686 32.6042 44.2775 30.636 44.2775 28.7405C44.2775 27.3362 45.6859 26.1809 47.4069 26.1809H53.0194C54.7404 26.1809 56.1488 27.3327 56.1488 28.7405C56.1488 30.6326 56.2577 32.6007 56.212 34.4928C56.2085 34.6207 56.205 34.7453 56.198 34.8698ZM47.154 25.1328H53.2723C55.7343 25.1328 57.7504 27.1183 57.7504 29.543C57.7504 33.7283 57.9611 36.4644 57.6871 39.4564C55.2426 39.8922 52.6296 40.1309 49.9146 40.1309C47.4209 40.1309 45.0186 39.9302 42.7497 39.5601C42.4617 36.5266 42.6759 33.7733 42.6759 29.543C42.6759 27.1183 44.692 25.1328 47.154 25.1328ZM45.7983 29.4842H49.2438C49.595 29.4842 49.883 29.7678 49.883 30.1137V32.8843C49.883 33.2302 49.595 33.5139 49.2438 33.5139H45.7983C45.4471 33.5139 45.1591 33.2302 45.1591 32.8843V30.1137C45.1591 29.7678 45.4471 29.4842 45.7983 29.4842ZM51.2282 29.4842H54.6737C55.0249 29.4842 55.3129 29.7678 55.3129 30.1137V32.8843C55.3129 33.2302 55.0249 33.5139 54.6737 33.5139H51.2282C50.877 33.5139 50.589 33.2302 50.589 32.8843V30.1137C50.589 29.7678 50.877 29.4842 51.2282 29.4842Z" fill="#009FE3"/>
<path fill-rule="evenodd" clip-rule="evenodd" d="M4.1224 38.014C4.40689 37.9137 4.71948 38.0589 4.82484 38.3357L5.55538 40.3073C5.65724 40.5874 5.50972 40.8953 5.22875 40.9991C4.94426 41.0994 4.62816 40.9541 4.52631 40.6774L3.79577 38.7058C3.6904 38.4291 3.83791 38.1177 4.1224 38.014ZM12.1408 38.014C11.8563 37.9137 11.5437 38.0589 11.4383 38.3357L10.7078 40.3073C10.6059 40.5874 10.7535 40.8953 11.0344 40.9991C11.3189 41.0994 11.635 40.9541 11.7369 40.6774L12.4674 38.7058C12.5693 38.4291 12.4218 38.1177 12.1408 38.014ZM11.8282 25.5756H4.43499C4.08728 25.5756 3.8063 25.8557 3.8063 26.1947C3.8063 26.5337 4.09079 26.8139 4.43499 26.8139H11.8247C12.1724 26.8139 12.4534 26.5337 12.4534 26.1947C12.4569 25.8557 12.1724 25.5756 11.8282 25.5756ZM1.9659 27.7478H14.2938C14.638 27.7478 14.9225 28.028 14.9225 28.3669C14.9225 28.7094 14.638 28.9861 14.2938 28.9861H1.9659C1.62171 28.9861 1.33722 28.7059 1.33722 28.3669C1.33722 28.0245 1.62171 27.7478 1.9659 27.7478ZM2.0502 29.9719H14.2095C14.6028 29.9719 14.9225 30.2867 14.9225 30.6741V33.0573L8.12984 30.8816L1.33722 33.0573V30.6741C1.33722 30.2867 1.66034 29.9719 2.0502 29.9719ZM0.638287 34.3129L8.13335 31.9124L15.6284 34.3129C15.9937 34.4305 16.3484 34.9563 16.2501 35.3229L14.1322 43.1367C14.0339 43.4999 13.939 43.8216 13.5562 43.8216H2.71049C2.32766 43.8216 2.23283 43.4999 2.13449 43.1367L0.0166252 35.3229C-0.0817167 34.9597 0.273017 34.4305 0.638287 34.3129Z" fill="#009FE3"/>
<path fill-rule="evenodd" clip-rule="evenodd" d="M22.6388 39.1866V38.6158C22.6388 38.3426 22.8671 38.1177 23.1445 38.1177H24.9814C25.2589 38.1177 25.4872 38.3426 25.4872 38.6158V39.1866C25.4872 39.4598 25.2589 39.6847 24.9814 39.6847H23.1445C22.8671 39.6847 22.6388 39.4598 22.6388 39.1866ZM21.996 28.9584H22.5264C22.8355 28.9584 23.0919 29.2075 23.0919 29.5153V31.8121C23.0919 32.1165 22.839 32.3655 22.5264 32.3655H21.996C21.687 32.3655 21.4306 32.1165 21.4306 31.8121V29.5153C21.4306 29.2075 21.687 28.9584 21.996 28.9584ZM36.5893 39.1866V38.6158C36.5893 38.3426 36.361 38.1177 36.0835 38.1177H34.2466C33.9692 38.1177 33.7409 38.3426 33.7409 38.6158V39.1866C33.7409 39.4598 33.9692 39.6847 34.2466 39.6847H36.087C36.3645 39.6847 36.5893 39.4598 36.5893 39.1866ZM37.2355 28.9584H36.7052C36.3961 28.9584 36.1397 29.2075 36.1397 29.5153V31.8121C36.1397 32.1165 36.3926 32.3655 36.7052 32.3655H37.2355C37.5446 32.3655 37.801 32.1165 37.801 31.8121V29.5153C37.7975 29.2075 37.5446 28.9584 37.2355 28.9584ZM34.4152 22.9087C31.2156 22.9087 28.016 22.9087 24.8164 22.9087C24.1525 22.9087 23.6117 23.4414 23.6117 24.0951V26.9176C27.6156 26.9176 31.616 26.9176 35.6199 26.9176V24.0951C35.6199 23.4414 35.0755 22.9087 34.4152 22.9087ZM37.4182 41.0267C32.2166 41.0267 27.015 41.0267 21.8134 41.0267V43.9876C21.8134 44.3785 22.14 44.7001 22.5369 44.7001H23.3693C23.7662 44.7001 24.0928 44.3785 24.0928 43.9876V43.403C27.7771 43.403 31.4615 43.403 35.1458 43.403V43.9876C35.1458 44.3785 35.4724 44.7001 35.8693 44.7001H36.7017C37.0986 44.7001 37.4252 44.3785 37.4252 43.9876V41.0267H37.4182ZM26.7656 35.3056C26.4811 35.3056 26.2493 35.5339 26.2493 35.8141V38.9998C26.2493 39.28 26.4811 39.5083 26.7656 39.5083C28.6657 39.5083 30.5623 39.5083 32.4624 39.5083C32.7469 39.5083 32.9787 39.28 32.9787 38.9998V35.8141C32.9787 35.5339 32.7469 35.3056 32.4624 35.3056C30.5658 35.3056 28.6657 35.3056 26.7656 35.3056ZM24.8936 28.3946C24.6478 28.3946 24.4476 28.5918 24.4476 28.8339V31.5838C24.4476 31.8259 24.6478 32.0231 24.8936 32.0231C28.0722 32.0231 31.1559 32.0231 34.3344 32.0231C34.5803 32.0231 34.7805 31.8259 34.7805 31.5838V28.8339C34.7805 28.5918 34.5803 28.3946 34.3344 28.3946C31.1559 28.3946 28.0722 28.3946 24.8936 28.3946ZM24.8164 27.5575C28.016 27.5575 31.2156 27.5575 34.4152 27.5575C35.079 27.5575 35.6199 28.0902 35.6199 28.744V36.2119C36.6209 36.2776 37.4182 37.1043 37.4182 38.1039V40.5286C32.2166 40.5286 27.015 40.5286 21.8134 40.5286V38.1039C21.8134 37.1008 22.6107 36.2741 23.6117 36.2119V28.744C23.6117 28.0902 24.1525 27.5575 24.8164 27.5575Z" fill="#009FE3"/>
</svg>
