<svg width="56" height="56" viewBox="0 0 56 56" fill="none" xmlns="http://www.w3.org/2000/svg">
<path d="M28 56C26.9951 56 26.0444 55.8128 25.1479 55.4384C24.2519 55.0641 23.4575 54.5233 22.7648 53.816C21.1413 52.2324 19.7553 51.1975 18.6068 50.7111C17.4583 50.2247 15.7352 49.9816 13.4377 49.9816C11.3771 49.9816 9.62526 49.2603 8.18222 47.8178C6.7397 46.3747 6.01845 44.6229 6.01845 42.5623C6.01845 40.3047 5.7737 38.5902 5.28422 37.4189C4.79474 36.2476 3.76133 34.853 2.184 33.2352C1.4617 32.5129 0.917259 31.7056 0.550667 30.8132C0.183556 29.9203 0 28.987 0 28.0132C0 27.0389 0.183556 26.1012 0.550667 25.2C0.917259 24.2988 1.4617 23.4871 2.184 22.7648C3.76133 21.1693 4.79474 19.7937 5.28422 18.6379C5.7737 17.4821 6.01845 15.7487 6.01845 13.4377C6.01845 11.3771 6.7397 9.62526 8.18222 8.18222C9.62526 6.73971 11.3771 6.01845 13.4377 6.01845C15.6953 6.01845 17.4098 5.7737 18.5811 5.28422C19.7524 4.79474 21.147 3.76133 22.7648 2.184C23.4596 1.47674 24.2568 0.935924 25.1564 0.561553C26.0556 0.187183 26.9956 0 27.9767 0C28.9577 0 29.8988 0.183557 30.8 0.550668C31.7012 0.917261 32.5129 1.46171 33.2352 2.184C34.8307 3.76133 36.2063 4.79474 37.3621 5.28422C38.5179 5.7737 40.2513 6.01845 42.5623 6.01845C44.6229 6.01845 46.3747 6.73971 47.8178 8.18222C49.2603 9.62526 49.9816 11.3771 49.9816 13.4377C49.9816 15.6953 50.2263 17.4098 50.7158 18.5811C51.2053 19.7524 52.2387 21.147 53.816 22.7648C54.5383 23.4871 55.0827 24.2944 55.4493 25.1868C55.8164 26.0797 56 27.013 56 27.9868C56 28.9611 55.8164 29.8988 55.4493 30.8C55.0827 31.7012 54.5383 32.5129 53.816 33.2352C52.2324 34.8587 51.1975 36.2447 50.7111 37.3932C50.2247 38.5417 49.9816 40.2648 49.9816 42.5623C49.9816 44.6229 49.2603 46.3747 47.8178 47.8178C46.3747 49.2603 44.6229 49.9816 42.5623 49.9816C40.3047 49.9816 38.5902 50.2263 37.4189 50.7158C36.2476 51.2053 34.853 52.2387 33.2352 53.816C32.5425 54.5233 31.7481 55.0641 30.8521 55.4384C29.9556 55.8128 29.0049 56 28 56ZM28.0078 52.8889C28.5771 52.8889 29.1358 52.7782 29.6839 52.5568C30.2325 52.3354 30.6963 52.0351 31.0753 51.6561C32.8819 49.8097 34.6018 48.5504 36.2351 47.8784C37.8679 47.2064 39.977 46.8704 42.5623 46.8704C43.7829 46.8704 44.806 46.4574 45.6314 45.6314C46.4574 44.806 46.8704 43.7829 46.8704 42.5623C46.8704 39.9936 47.2064 37.8985 47.8784 36.2771C48.5504 34.6557 49.7897 32.9218 51.5962 31.0753C52.458 30.2136 52.8889 29.1884 52.8889 28C52.8889 26.8116 52.478 25.8064 51.6561 24.9846C49.8097 23.1381 48.5504 21.3982 47.8784 19.7649C47.2064 18.1321 46.8704 16.023 46.8704 13.4377C46.8704 12.2171 46.4574 11.194 45.6314 10.3686C44.806 9.54256 43.7829 9.12956 42.5623 9.12956C39.936 9.12956 37.8192 8.80341 36.2118 8.15111C34.6039 7.4983 32.8717 6.24919 31.0154 4.40378C30.6364 4.02474 30.1726 3.71441 29.624 3.47278C29.0759 3.23167 28.5346 3.11111 28 3.11111C27.4654 3.11111 26.914 3.23685 26.3457 3.48833C25.7774 3.73929 25.3037 4.04444 24.9247 4.40378C23.1181 6.2103 21.3982 7.44955 19.7649 8.12155C18.1321 8.79355 16.023 9.12956 13.4377 9.12956C12.2171 9.12956 11.194 9.54256 10.3686 10.3686C9.54256 11.194 9.12956 12.2171 9.12956 13.4377C9.12956 16.0463 8.79356 18.1614 8.12156 19.7828C7.44956 21.4042 6.19033 23.1381 4.34389 24.9846C3.52204 25.8064 3.11111 26.8116 3.11111 28C3.11111 29.1884 3.52204 30.2136 4.34389 31.0753C6.19033 32.9218 7.44956 34.6487 8.12156 36.2561C8.79356 37.8635 9.12956 39.9656 9.12956 42.5623C9.12956 43.7829 9.54256 44.806 10.3686 45.6314C11.194 46.4574 12.2171 46.8704 13.4377 46.8704C16.0505 46.8704 18.1564 47.2064 19.7556 47.8784C21.3552 48.5504 23.0982 49.8097 24.9846 51.6561C25.3636 52.0351 25.8199 52.3354 26.3534 52.5568C26.887 52.7782 27.4384 52.8889 28.0078 52.8889ZM35.3694 38.3507C36.2198 38.3507 36.9294 38.0665 37.4982 37.4982C38.0665 36.9294 38.3507 36.2198 38.3507 35.3694C38.3507 34.5191 38.0665 33.7963 37.4982 33.201C36.9294 32.6052 36.2198 32.3073 35.3694 32.3073C34.5191 32.3073 33.7963 32.6052 33.201 33.201C32.6052 33.7963 32.3073 34.5191 32.3073 35.3694C32.3073 36.2198 32.6052 36.9294 33.201 37.4982C33.7963 38.0665 34.5191 38.3507 35.3694 38.3507ZM19.4359 36.6154C19.7335 36.9188 20.0804 37.0704 20.4766 37.0704C20.8732 37.0704 21.2232 36.9188 21.5266 36.6154L36.5556 21.6642C36.8988 21.3609 37.0704 21.0008 37.0704 20.5839C37.0704 20.1675 36.8988 19.7877 36.5556 19.4444C36.2123 19.1012 35.8423 18.9296 35.4457 18.9296C35.049 18.9296 34.679 19.1012 34.3358 19.4444L19.3846 34.4734C19.0812 34.7768 18.9397 35.1338 18.9599 35.5444C18.9796 35.9551 19.1383 36.3121 19.4359 36.6154ZM22.799 22.799C23.3948 22.2037 23.6927 21.4809 23.6927 20.6306C23.6927 19.7802 23.3948 19.0706 22.799 18.5018C22.2037 17.9335 21.4809 17.6493 20.6306 17.6493C19.7802 17.6493 19.0706 17.9335 18.5018 18.5018C17.9335 19.0706 17.6493 19.7802 17.6493 20.6306C17.6493 21.4809 17.9335 22.2037 18.5018 22.799C19.0706 23.3948 19.7802 23.6927 20.6306 23.6927C21.4809 23.6927 22.2037 23.3948 22.799 22.799Z" fill="#BEBEBE"/>
</svg>
