<svg width="165" height="139" viewBox="0 0 165 139" fill="none" xmlns="http://www.w3.org/2000/svg">
<path fill-rule="evenodd" clip-rule="evenodd" d="M58.7373 127.12C58.7373 130.11 61.1673 132.55 64.1673 132.55H66.5373C68.9373 132.55 70.9873 131.7 71.6973 129.53H84.3273H96.9573C97.6673 131.7 99.7173 132.55 102.117 132.55H104.487C107.477 132.55 109.907 130.11 109.907 127.12V125.73C113.157 124.03 116.357 121.88 119.027 119.76C119.427 122.32 119.937 124.86 120.537 127.38L120.787 128.42C109.647 135.32 96.9873 138.77 84.3273 138.77C69.9773 138.77 55.6373 134.34 43.4973 125.48L45.8973 116.49C48.9273 119.5 53.7673 123.14 58.7373 125.73V127.12ZM26.9373 30.37L33.8273 33.36L32.0773 35.09L31.9973 35.19C30.8473 36.47 29.4573 37.65 28.2673 38.92C27.8373 39.37 27.3673 39.73 26.9373 40.2L24.4773 42.67C24.3073 42.63 24.1373 42.6 23.9573 42.56C22.8573 42.3 21.7373 42.07 20.6273 41.84C22.3373 37.86 24.4473 34.02 26.9373 30.37ZM59.5773 64.96H65.7173C64.6173 66.12 63.9273 67.67 63.8673 69.38C63.8673 69.46 63.8673 69.54 63.8673 69.62V73.8H53.1873C53.4973 81.87 54.6373 89.63 56.5373 96.72L61.9573 96.85C62.1773 96.88 62.3973 96.9 62.6173 96.9H63.8473V102.1C59.8473 103.97 58.7273 105.79 58.7273 110.13V121.34C56.0873 117.94 53.9273 114.27 51.7673 110.04L49.1673 104.2L49.4973 102.95C50.0473 100.89 49.1173 98.58 47.5173 97.14C46.1173 91.47 44.5273 79.32 44.3373 73.81H38.4673C37.7073 71.9 35.8473 70.54 33.6673 70.54H14.9473C14.9373 70.16 14.9373 69.77 14.9373 69.39C14.9373 64.09 15.5473 58.79 16.7473 53.61L19.3673 55.29C19.4373 55.43 19.4973 55.56 19.5673 55.69C19.7873 56.1 19.9873 56.52 20.2073 56.93C20.6373 57.74 21.0573 58.56 21.4873 59.37C22.2573 60.82 23.1673 62.37 23.8573 63.86L24.0073 64.36C23.9873 64.57 23.9773 64.77 23.9573 64.97H24.1873L25.3073 68.78L29.5473 64.97H44.3473C44.5073 60.52 44.8973 56.16 45.5173 51.92L46.0173 53.42C46.1173 53.73 46.2173 54.05 46.3273 54.36C46.4373 54.66 46.5273 54.97 46.6373 55.27C46.7273 55.53 46.8173 55.79 46.9073 56.05L46.9173 56.07L49.8973 65.03C49.9973 65.35 50.0973 65.66 50.2073 65.97C50.2973 66.22 50.3973 66.48 50.4773 66.73L51.2573 69.38L51.9873 71.86L54.7473 69.38L55.9673 68.29L58.4973 66.01L58.5373 65.97C58.6773 65.83 58.8073 65.69 58.9373 65.55C59.1373 65.38 59.3273 65.2 59.5273 65.02L59.5773 64.96ZM103.107 10.26C110.917 12.37 120.507 19.44 124.277 23.91C122.027 25.9 119.647 27.7 117.167 29.31C113.317 21.69 109.537 15.88 103.107 10.26ZM88.7373 38.8V9.47998C98.6873 12.35 105.597 23.93 109.347 33.58C102.907 36.51 95.9473 38.29 88.7373 38.8ZM124.297 64.96C123.957 55.42 122.527 46.23 120.117 37.89C123.777 35.68 127.237 33.11 130.477 30.22C138.827 40.03 143.777 52.1 144.697 64.96H124.297ZM39.2773 16.62C52.2273 5.54 68.2773 0 84.3273 0C102.077 0 119.827 6.77999 133.377 20.33C146.937 33.89 153.707 51.64 153.707 69.38C153.047 69.3 152.367 69.25 151.687 69.25H134.267C133.577 69.25 132.897 69.29 132.237 69.38C124.317 70.39 118.147 77.19 118.147 85.37C118.147 89.22 118.067 93.06 118.007 96.9C117.977 98.31 117.957 99.71 117.947 101.12C117.927 102.53 117.927 103.95 117.937 105.36L117.167 109.47C114.907 113.94 112.677 117.79 109.917 121.34V110.13C109.917 105.9 108.737 103.95 104.797 102.1V96.9H106.027C106.257 96.9 106.477 96.88 106.687 96.85L112.107 96.72C114.007 89.63 115.157 81.87 115.457 73.8H104.787V69.62C104.787 69.54 104.787 69.46 104.777 69.38C104.717 67.67 104.027 66.12 102.927 64.96H115.447C115.137 56.89 113.997 49.13 112.097 42.04C104.777 45.24 96.8973 47.15 88.7373 47.66V62.82H84.3173H79.8973V47.66C73.0473 47.23 66.3973 45.82 60.0973 43.48L59.4973 37.04C59.4773 36.87 59.4673 36.7 59.4473 36.52L59.1673 33.51L59.2873 33.57C65.7273 36.5 72.6873 38.27 79.8973 38.79V9.47C76.2373 10.52 72.9873 12.76 70.1673 15.64C70.3573 14.05 70.0073 12.47 68.7873 11.12C67.7873 10 66.5473 9.33999 65.0873 9.04999C64.1773 8.87999 63.2873 8.86 62.3773 8.97C60.4273 9.2 58.5173 10.07 57.0673 11.39C55.9273 12.43 54.7073 13.37 53.5673 14.4C53.2873 14.65 52.9673 14.87 52.6773 15.13C52.3873 15.39 52.0973 15.65 51.7973 15.92C51.5273 16.16 51.2273 16.37 50.9473 16.62L48.9473 18.38C48.5673 18.31 48.1873 18.24 47.8073 18.17C45.0473 17.65 42.2873 17.2 39.5373 16.66H39.5173L39.2773 16.62Z" fill="#009FE3"/>
<path fill-rule="evenodd" clip-rule="evenodd" d="M11.9873 20.22C12.1673 20.34 12.4273 20.44 12.6273 20.52C12.8673 20.61 13.0573 20.71 13.3073 20.81L17.9073 22.82C18.0373 22.87 18.1073 22.89 18.2273 22.94L21.8573 24.53C22.8373 25 23.8173 25.38 24.8173 25.81C24.9573 25.87 25.0273 25.92 25.1773 25.98L38.3673 31.71C40.0373 32.48 39.8873 32.11 39.0673 32.93C38.8473 33.15 38.6973 33.33 38.4073 33.59C37.9873 33.97 37.5673 34.5 37.1373 34.87L34.5373 37.43C34.1473 37.89 31.4073 40.52 30.6973 41.27C30.2973 41.7 29.7473 42.11 29.3773 42.55L25.5473 46.39L24.3573 46.13C23.9473 46.03 23.5873 45.97 23.1673 45.87C20.7773 45.3 18.3373 44.88 15.9573 44.28C15.5673 44.63 15.2873 44.81 14.8873 45.17L12.7773 47.06C13.0573 47.35 14.6673 48.31 15.0373 48.54L21.8773 52.94C22.0073 53.09 22.4073 53.9 22.5273 54.14C22.7373 54.54 22.9473 54.96 23.1673 55.38C23.6073 56.2 24.0073 56.99 24.4473 57.82C24.6373 58.18 26.9273 62.44 27.0073 62.73L28.1973 61.66C28.3573 61.5 28.3473 61.46 28.5473 61.28C28.8073 61.04 29.0873 60.8 29.3573 60.56L30.1273 59.8C29.9973 59.54 29.7073 56.7 29.6273 56.16L28.9273 50.73C28.8973 50.52 28.9073 50.27 28.8173 50.1L30.7273 48.51C31.0473 48.28 31.3573 47.91 31.6873 47.66C31.9973 47.42 32.2973 47.18 32.6373 46.87C32.9773 46.57 33.2273 46.41 33.5873 46.08L34.5373 45.29C35.2073 44.69 35.7973 44.18 36.4873 43.6L38.8573 41.61C39.0773 41.42 39.1373 41.43 39.3473 41.24C39.6573 40.97 39.9673 40.63 40.3073 40.41C40.6373 40.19 40.9573 39.87 41.2673 39.59C41.4773 39.4 41.5373 39.4 41.7273 39.25L43.1773 38.01C43.3473 37.86 43.5073 37.71 43.6773 37.56C43.8973 37.36 43.9773 37.36 44.1673 37.19C44.2473 37.49 44.3673 37.76 44.4573 38.08C44.5573 38.39 44.6573 38.66 44.7473 38.97C45.2773 40.77 45.9873 42.52 46.5273 44.32L49.2073 52.38C49.3173 52.7 49.3973 52.96 49.5073 53.27C49.6173 53.59 49.7073 53.88 49.8073 54.16C49.9173 54.46 50.0173 54.75 50.1073 55.05L53.0773 64C53.1873 64.32 53.2673 64.58 53.3773 64.89C53.4873 65.21 53.6073 65.52 53.6973 65.82L53.7373 65.79L56.1873 63.59C56.3673 63.41 56.4273 63.3 56.6573 63.1C56.8673 62.92 57.0673 62.73 57.2773 62.55C57.6873 62.19 57.9873 61.84 58.4273 61.44C58.3473 61.11 58.3373 60.75 58.3073 60.41C57.8573 55.16 57.3073 49.93 56.8473 44.69L56.1673 37.4C56.1473 37.2 56.1373 37.08 56.1273 36.89L55.5873 31.14C55.5573 30.77 55.5273 30.45 55.4973 30.08C55.4673 29.8 55.3773 28.17 55.2673 27.95C55.6473 27.61 56.0673 27.33 56.4473 27.03C56.5873 26.92 56.7373 26.77 56.8673 26.65C57.1773 26.37 57.3573 26.28 57.6673 26C57.9273 25.77 58.1873 25.49 58.4673 25.31C59.0273 24.94 59.4973 24.31 60.0673 23.94C60.6873 23.53 62.5773 21.72 63.2873 21.09C64.8073 19.72 68.2173 15.56 66.3173 13.45C65.7773 12.85 65.1773 12.57 64.4773 12.43C63.8973 12.32 63.3673 12.32 62.8073 12.38C61.7673 12.5 60.4473 12.96 59.3673 13.95C58.1973 15.02 57.0173 15.92 55.8473 16.97C55.5073 17.27 55.2773 17.41 54.9673 17.69C54.6773 17.96 54.3773 18.22 54.0873 18.48C53.7573 18.78 53.5473 18.9 53.2073 19.2L50.1473 21.89C49.8473 22.15 49.5673 21.99 48.8773 21.85C48.3273 21.74 47.7673 21.65 47.2173 21.54C44.4573 21.02 41.6673 20.57 38.9073 20.02L34.7573 19.25C34.5973 19.22 34.5073 19.21 34.3573 19.18L31.4373 18.64C31.2873 18.62 31.1773 18.59 31.0373 18.57L17.3173 16.05C16.8473 15.96 16.9373 15.87 16.4673 16.3C14.9673 17.62 13.4573 18.89 11.9873 20.22Z" fill="#009FE3"/>
<path fill-rule="evenodd" clip-rule="evenodd" d="M156.987 106.51L152.077 108.93C151.177 109.37 150.797 110.48 151.247 111.38C151.697 112.28 152.797 112.66 153.697 112.21L158.607 109.79C159.507 109.34 159.887 108.24 159.437 107.34C158.997 106.44 157.887 106.07 156.987 106.51ZM128.957 106.51L133.867 108.93C134.767 109.37 135.147 110.48 134.697 111.38C134.247 112.28 133.147 112.66 132.247 112.21L127.337 109.79C126.437 109.34 126.057 108.24 126.507 107.34C126.947 106.44 128.047 106.07 128.957 106.51ZM163.917 117.01C163.537 120.01 162.967 123.16 162.137 126.65H142.977H123.817C123.017 123.27 122.457 120.22 122.077 117.3C128.457 118.32 135.177 118.87 142.137 118.87C149.707 118.87 157.027 118.22 163.917 117.01ZM137.867 78.28H142.977H148.077L146.607 81.7L142.977 82.38L139.347 81.7L137.867 78.28ZM137.867 100.04H142.977H148.077L146.607 103.46L142.977 104.14L139.347 103.46L137.867 100.04ZM160.007 100.81C155.427 105.08 149.477 107.67 142.967 107.67C136.457 107.67 130.507 105.09 125.927 100.81C125.917 100.45 125.897 100.08 125.887 99.72C125.757 94.26 126.067 88.57 126.067 83.09C126.067 79.03 130.077 75.69 134.977 75.69H150.957C155.857 75.69 159.867 79.02 159.867 83.09C159.867 88.56 160.177 94.25 160.047 99.72C160.037 100.09 160.027 100.45 160.007 100.81ZM134.257 72.66H142.967H151.677C158.687 72.66 164.427 78.4 164.427 85.41C164.427 97.51 165.027 105.42 164.247 114.07C157.287 115.33 149.847 116.02 142.117 116.02C135.017 116.02 128.177 115.44 121.717 114.37C120.897 105.6 121.507 97.64 121.507 85.41C121.507 78.4 127.247 72.66 134.257 72.66ZM130.397 85.24H140.207C141.207 85.24 142.027 86.06 142.027 87.06V95.07C142.027 96.07 141.207 96.89 140.207 96.89H130.397C129.397 96.89 128.577 96.07 128.577 95.07V87.06C128.577 86.06 129.397 85.24 130.397 85.24ZM145.857 85.24H155.667C156.667 85.24 157.487 86.06 157.487 87.06V95.07C157.487 96.07 156.667 96.89 155.667 96.89H145.857C144.857 96.89 144.037 96.07 144.037 95.07V87.06C144.037 86.06 144.857 85.24 145.857 85.24Z" fill="#009FE3"/>
<path fill-rule="evenodd" clip-rule="evenodd" d="M11.7373 109.9C12.5473 109.61 13.4373 110.03 13.7373 110.83L15.8173 116.53C16.1073 117.34 15.6873 118.23 14.8873 118.53C14.0773 118.82 13.1773 118.4 12.8873 117.6L10.8073 111.9C10.5073 111.1 10.9273 110.2 11.7373 109.9ZM34.5673 109.9C33.7573 109.61 32.8673 110.03 32.5673 110.83L30.4873 116.53C30.1973 117.34 30.6173 118.23 31.4173 118.53C32.2273 118.82 33.1273 118.4 33.4173 117.6L35.4973 111.9C35.7873 111.1 35.3673 110.2 34.5673 109.9ZM33.6773 73.94H23.1473H12.6273C11.6373 73.94 10.8373 74.75 10.8373 75.73C10.8373 76.71 11.6473 77.52 12.6273 77.52H23.1473H33.6673C34.6573 77.52 35.4573 76.71 35.4573 75.73C35.4673 74.75 34.6573 73.94 33.6773 73.94ZM5.59734 80.22H23.1473H40.6973C41.6773 80.22 42.4873 81.03 42.4873 82.01C42.4873 83 41.6773 83.8 40.6973 83.8H23.1473H5.59734C4.61734 83.8 3.80734 82.99 3.80734 82.01C3.80734 81.02 4.61734 80.22 5.59734 80.22ZM5.83734 86.65H23.1473H40.4573C41.5773 86.65 42.4873 87.56 42.4873 88.68V95.57L23.1473 89.28L3.80734 95.57V88.68C3.80734 87.56 4.72734 86.65 5.83734 86.65ZM1.81734 99.2L23.1573 92.26L44.4973 99.2C45.5373 99.54 46.5473 101.06 46.2673 102.12L40.2373 124.71C39.9573 125.76 39.6873 126.69 38.5973 126.69H23.1473H7.71734C6.62734 126.69 6.35734 125.76 6.07734 124.71L0.0473355 102.12C-0.232664 101.07 0.777336 99.54 1.81734 99.2Z" fill="#009FE3"/>
<path fill-rule="evenodd" clip-rule="evenodd" d="M64.4573 113.29V111.64C64.4573 110.85 65.1073 110.2 65.8973 110.2H71.1273C71.9173 110.2 72.5673 110.85 72.5673 111.64V113.29C72.5673 114.08 71.9173 114.73 71.1273 114.73H65.8973C65.1073 114.73 64.4573 114.08 64.4573 113.29ZM62.6273 83.72H64.1373C65.0173 83.72 65.7473 84.44 65.7473 85.33V91.97C65.7473 92.85 65.0273 93.57 64.1373 93.57H62.6273C61.7473 93.57 61.0173 92.85 61.0173 91.97V85.33C61.0173 84.44 61.7473 83.72 62.6273 83.72ZM104.177 113.29V111.64C104.177 110.85 103.527 110.2 102.737 110.2H97.5073C96.7173 110.2 96.0673 110.85 96.0673 111.64V113.29C96.0673 114.08 96.7173 114.73 97.5073 114.73H102.747C103.537 114.73 104.177 114.08 104.177 113.29ZM106.017 83.72H104.507C103.627 83.72 102.897 84.44 102.897 85.33V91.97C102.897 92.85 103.617 93.57 104.507 93.57H106.017C106.897 93.57 107.627 92.85 107.627 91.97V85.33C107.617 84.44 106.897 83.72 106.017 83.72ZM97.9873 66.23C88.8773 66.23 79.7673 66.23 70.6573 66.23C68.7673 66.23 67.2273 67.77 67.2273 69.66V77.82C78.6273 77.82 90.0173 77.82 101.417 77.82V69.66C101.417 67.77 99.8673 66.23 97.9873 66.23ZM106.537 118.61C91.7273 118.61 76.9173 118.61 62.1073 118.61V122.69V125.48V127.17C62.1073 128.3 63.0373 129.23 64.1673 129.23H66.5373C67.6673 129.23 68.5973 128.3 68.5973 127.17V125.48C79.0873 125.48 89.5773 125.48 100.067 125.48V127.17C100.067 128.3 100.997 129.23 102.127 129.23H104.497C105.627 129.23 106.557 128.3 106.557 127.17V125.48V122.69V118.61H106.537ZM76.2073 102.07C75.3973 102.07 74.7373 102.73 74.7373 103.54V112.75C74.7373 113.56 75.3973 114.22 76.2073 114.22C81.6173 114.22 87.0173 114.22 92.4273 114.22C93.2373 114.22 93.8973 113.56 93.8973 112.75V103.54C93.8973 102.73 93.2373 102.07 92.4273 102.07C87.0273 102.07 81.6173 102.07 76.2073 102.07ZM70.8773 82.09C70.1773 82.09 69.6073 82.66 69.6073 83.36V91.31C69.6073 92.01 70.1773 92.58 70.8773 92.58C79.9273 92.58 88.7073 92.58 97.7573 92.58C98.4573 92.58 99.0273 92.01 99.0273 91.31V83.36C99.0273 82.66 98.4573 82.09 97.7573 82.09C88.7073 82.09 79.9273 82.09 70.8773 82.09ZM70.6573 79.67C79.7673 79.67 88.8773 79.67 97.9873 79.67C99.8773 79.67 101.417 81.21 101.417 83.1V104.69C104.267 104.88 106.537 107.27 106.537 110.16V117.17C91.7273 117.17 76.9173 117.17 62.1073 117.17V110.16C62.1073 107.26 64.3773 104.87 67.2273 104.69V83.1C67.2273 81.21 68.7673 79.67 70.6573 79.67Z" fill="#009FE3"/>
</svg>
